<svg width="130" height="130" viewBox="-15 -35 130 130" fill="none" xmlns="http://www.w3.org/2000/svg">
  <path d="M81.6432 61.91C76.5075 61.91 72.2892 57.88 72.0598 52.73L72.0299 52.06H37.2266L37.1967 52.73C36.9573 57.88 32.749 61.91 27.6133 61.91C22.4776 61.91 18.2593 57.88 18.0299 52.73L18 52.06H9.60332C7.91801 52.06 6.5518 50.69 6.5518 49V45.49H1.40609C0.628255 45.49 0 44.86 0 44.08C0 43.3 0.628255 42.67 1.40609 42.67H16.1452C16.923 42.67 17.5512 43.3 17.5512 44.08C17.5512 44.86 16.923 45.49 16.1452 45.49H9.37396V49.22H18.4787L18.6482 48.77C20.0742 45.11 23.6643 42.65 27.5834 42.65C31.5025 42.65 35.0925 45.11 36.5186 48.77L36.6881 49.22H68.6892V37.5C68.6892 36.72 69.3175 36.09 70.0953 36.09C70.8731 36.09 71.5014 36.72 71.5014 37.5V48.17L72.7579 48.45L72.8377 48.28C74.3934 44.87 77.8238 42.66 81.5634 42.66C85.303 42.66 89.0726 45.12 90.4986 48.78L90.6681 49.23H94.8964V42.2H93.0316C90.4488 42.2 88.3546 40.1 88.3546 37.51V34.23C88.3546 33.45 88.9828 32.82 89.7607 32.82H94.8366L94.2881 31.78C93.3906 30.11 91.6654 29.07 89.7706 29.07H71.5413V30.94C71.5413 31.72 70.913 32.35 70.1352 32.35C69.3573 32.35 68.7291 31.72 68.7291 30.94V2.82H9.35402V30.95C9.35402 31.73 8.72576 32.36 7.94792 32.36C7.17008 32.36 6.54183 31.73 6.54183 30.95V3.06C6.54183 1.37 7.90803 0 9.59335 0H68.4898C70.1751 0 71.5413 1.37 71.5413 3.06V6.57H83.2288C86.7191 6.57 89.5513 9.41 89.5513 12.91V14.56C89.5513 15.07 89.272 15.54 88.8133 15.79L88.3446 16.05L90.9174 26.33L91.3562 26.42C95.0659 27.15 97.7485 30.44 97.7485 34.26V50.67C97.7485 51.45 97.1202 52.08 96.3424 52.08H91.2565L91.2266 52.75C90.9873 57.9 86.779 61.93 81.6432 61.93V61.91ZM81.6033 45.5C77.8737 45.5 74.8321 48.55 74.8321 52.29C74.8321 56.03 77.8737 59.08 81.6033 59.08C85.333 59.08 88.3745 56.03 88.3745 52.29C88.3745 48.55 85.333 45.5 81.6033 45.5ZM27.5934 45.5C23.8637 45.5 20.8222 48.55 20.8222 52.29C20.8222 56.03 23.8637 59.08 27.5934 59.08C31.323 59.08 34.3645 56.03 34.3645 52.29C34.3645 48.55 31.323 45.5 27.5934 45.5ZM91.2066 37.51C91.2066 38.54 92.0443 39.38 93.0715 39.38H94.9363V35.63H91.1967V37.5L91.2066 37.51ZM71.5712 26.26H87.9956L85.4227 15.95H71.5712V26.26ZM71.5712 13.11H86.8488L86.7091 12.29C86.4199 10.61 84.974 9.38 83.2687 9.38H71.5812V13.11H71.5712Z" fill="#C23E24"/>
  <path d="M81.641 61.3401C76.6648 61.3401 72.6161 57.2801 72.6161 52.2901V51.4901H36.626V52.2901C36.626 57.2801 32.5773 61.3401 27.6011 61.3401C22.6249 61.3401 18.5762 57.2801 18.5762 52.2901V51.4901H9.59113C8.22493 51.4901 7.118 50.3801 7.118 49.0101V44.9301H1.40387C0.945147 44.9301 0.576172 44.5601 0.576172 44.1001C0.576172 43.6401 0.945147 43.2701 1.40387 43.2701H16.1429C16.6017 43.2701 16.9706 43.6401 16.9706 44.1001C16.9706 44.5601 16.6017 44.9301 16.1429 44.9301H8.80332V49.0101C8.80332 49.4601 9.15235 49.8101 9.6011 49.8101H18.9053L19.0648 49.3401C20.3213 45.7001 23.7518 43.2501 27.5911 43.2501C31.4305 43.2501 34.8609 45.7001 36.1174 49.3401L36.277 49.8101H69.2753V37.5101C69.2753 37.0501 69.6443 36.6801 70.103 36.6801C70.5618 36.6801 70.9307 37.0501 70.9307 37.5101V49.8101H72.8753L73.0349 49.3401C74.2914 45.7001 77.7219 43.2501 81.5612 43.2501C85.4006 43.2501 88.831 45.7001 90.0875 49.3401L90.2471 49.8101H95.4626V41.6301H93.0194C90.7557 41.6301 88.9208 39.7801 88.9208 37.5201V34.2401C88.9208 33.7801 89.2897 33.4101 89.7485 33.4101H95.4726L95.1834 32.4901C94.4255 30.1101 92.2415 28.5101 89.7485 28.5101H70.9407V30.9601C70.9407 31.4201 70.5717 31.7901 70.113 31.7901C69.6543 31.7901 69.2853 31.4201 69.2853 30.9601V3.04008C69.2853 2.59008 68.9363 2.24008 68.4875 2.24008H9.57119C9.12243 2.24008 8.7734 2.59008 8.7734 3.04008V30.9501C8.7734 31.4101 8.40443 31.7801 7.9457 31.7801C7.48698 31.7801 7.118 31.4101 7.118 30.9501V3.06008C7.118 1.69008 8.22493 0.580078 9.59113 0.580078H68.4875C69.8537 0.580078 70.9607 1.69008 70.9607 3.06008V7.14008H83.2266C86.3978 7.14008 88.9806 9.73008 88.9806 12.9101V14.5601C88.9806 14.9501 88.7014 15.2901 88.3224 15.3701L87.6144 15.5301L90.4465 26.8601L90.9053 26.9301C94.4753 27.4601 97.1579 30.6101 97.1579 34.2601V50.6701C97.1579 51.1301 96.7889 51.5001 96.3302 51.5001H90.656V52.3001C90.656 57.2901 86.6072 61.3501 81.631 61.3501L81.641 61.3401ZM81.6011 44.9301C77.5524 44.9301 74.2615 48.2301 74.2615 52.2901C74.2615 56.3501 77.5524 59.6501 81.6011 59.6501C85.6499 59.6501 88.9407 56.3501 88.9407 52.2901C88.9407 48.2301 85.6499 44.9301 81.6011 44.9301ZM27.5911 44.9301C23.5424 44.9301 20.2515 48.2301 20.2515 52.2901C20.2515 56.3501 23.5424 59.6501 27.5911 59.6501C31.6399 59.6501 34.9307 56.3501 34.9307 52.2901C34.9307 48.2301 31.6399 44.9301 27.5911 44.9301ZM90.626 37.5101C90.626 38.8601 91.723 39.9601 93.0693 39.9601H95.5125V35.0601H90.626V37.5101ZM70.9906 26.8301H88.7213L85.8593 15.3701H70.9806V26.8301H70.9906ZM70.9906 13.6801H87.3252V12.8801C87.3252 10.6301 85.5003 8.80008 83.2565 8.80008H70.9906V13.6801Z" fill="#C23E24"/>
  <path d="M27.5847 55.3505C25.8994 55.3505 24.5332 53.9805 24.5332 52.2905C24.5332 50.6005 25.8994 49.2305 27.5847 49.2305C29.27 49.2305 30.6362 50.6005 30.6362 52.2905C30.6362 53.9805 29.27 55.3505 27.5847 55.3505Z" fill="#C23E24"/>
  <path d="M27.5825 54.7686C28.9484 54.7686 30.0556 53.6583 30.0556 52.2886C30.0556 50.9189 28.9484 49.8086 27.5825 49.8086C26.2166 49.8086 25.1094 50.9189 25.1094 52.2886C25.1094 53.6583 26.2166 54.7686 27.5825 54.7686Z" fill="#C23E24"/>
  <path d="M81.6023 55.3505C79.917 55.3505 78.5508 53.9805 78.5508 52.2905C78.5508 50.6005 79.917 49.2305 81.6023 49.2305C83.2876 49.2305 84.6538 50.6005 84.6538 52.2905C84.6538 53.9805 83.2876 55.3505 81.6023 55.3505Z" fill="#C23E24"/>
  <path d="M81.604 54.7686C82.9699 54.7686 84.0771 53.6583 84.0771 52.2886C84.0771 50.9189 82.9699 49.8086 81.604 49.8086C80.2381 49.8086 79.1309 50.9189 79.1309 52.2886C79.1309 53.6583 80.2381 54.7686 81.604 54.7686Z" fill="#C23E24"/>
  <path d="M40.6795 45.4802C39.9017 45.4802 39.2734 44.8502 39.2734 44.0702C39.2734 43.2902 39.9017 42.6602 40.6795 42.6602H63.6058C64.3837 42.6602 65.0119 43.2902 65.0119 44.0702C65.0119 44.8502 64.3837 45.4802 63.6058 45.4802H40.6795Z" fill="#C23E24"/>
  <path d="M40.6773 44.91C40.2186 44.91 39.8496 44.54 39.8496 44.08C39.8496 43.62 40.2186 43.25 40.6773 43.25H63.6036C64.0624 43.25 64.4313 43.62 64.4313 44.08C64.4313 44.54 64.0624 44.91 63.6036 44.91H40.6773Z" fill="#C23E24"/>
  <path d="M4.67758 38.9196C3.89974 38.9196 3.27148 38.2896 3.27148 37.5096C3.27148 36.7296 3.89974 36.0996 4.67758 36.0996H24.313C25.0909 36.0996 25.7191 36.7296 25.7191 37.5096C25.7191 38.2896 25.0909 38.9196 24.313 38.9196H4.67758Z" fill="#C23E24"/>
  <path d="M4.67731 38.3397C4.21858 38.3397 3.84961 37.9697 3.84961 37.5097C3.84961 37.0497 4.21858 36.6797 4.67731 36.6797H24.3128C24.7815 36.6797 25.1405 37.0497 25.1405 37.5097C25.1405 37.9697 24.7715 38.3397 24.3128 38.3397H4.67731Z" fill="#C23E24"/>
  <path d="M37.4449 32.3495C37.056 32.3495 36.707 32.2095 36.4477 31.9495L28.2604 23.7295C28.0011 23.4595 27.8516 23.1095 27.8516 22.7395C27.8516 22.3695 28.0011 22.0095 28.2604 21.7495C28.5197 21.4895 28.8787 21.3395 29.2477 21.3395C29.6167 21.3395 29.9757 21.4895 30.2349 21.7495L37.425 28.9595L51.1668 15.1795C51.4261 14.9195 51.7851 14.7695 52.1541 14.7695C52.523 14.7695 52.882 14.9195 53.1413 15.1795C53.6798 15.7195 53.6998 16.6095 53.1812 17.1695L38.4421 31.9495C38.1629 32.2095 37.8139 32.3495 37.4449 32.3495Z" fill="#C23E24"/>
  <path d="M37.4468 31.7794C37.2075 31.7794 37.008 31.6994 36.8485 31.5394L28.6612 23.3294C28.3421 23.0094 28.3421 22.4794 28.6612 22.1594C28.8108 22.0094 29.0202 21.9194 29.2496 21.9194C29.4789 21.9194 29.6784 22.0094 29.8379 22.1594L37.4368 29.7794L51.5776 15.5994C51.7371 15.4394 51.9366 15.3594 52.1659 15.3594C52.3953 15.3594 52.5947 15.4494 52.7543 15.5994C53.0734 15.9194 53.0834 16.4594 52.7742 16.7894L38.0551 31.5494C37.8956 31.6994 37.6861 31.7894 37.4568 31.7894L37.4468 31.7794Z" fill="#C23E24"/>
</svg>