<svg width="130" height="130" viewBox="-45 -40 130 130" fill="none" xmlns="http://www.w3.org/2000/svg">
  <path d="M40.7821 17.1028L40.7822 17.1027C41.4319 16.4528 42.4855 16.4527 43.1356 17.1028L47.4217 21.3889C49.1899 23.1571 49.1899 26.0343 47.4217 27.8026L43.1356 32.0886C42.8105 32.4137 42.3852 32.5762 41.9587 32.5762C41.5326 32.5762 41.1073 32.4137 40.7822 32.0886L40.7821 32.0886C40.1322 31.4389 40.1322 30.3853 40.7821 29.7356L40.7822 29.7356L43.8309 26.6865L44.2576 26.2598H43.6541H20.6719C19.7527 26.2598 19.0078 25.5149 19.0078 24.5957C19.0078 23.6766 19.7527 22.9316 20.6719 22.9316H43.6541H44.2576L43.8309 22.5049L40.7822 19.4558L40.7821 19.4558C40.1322 18.8061 40.1322 17.7525 40.7821 17.1028ZM34.2988 37.5156V41.3438C34.2988 45.4275 30.9763 48.75 26.8926 48.75H7.65625C3.57254 48.75 0.25 45.4275 0.25 41.3438V7.65625C0.25 3.57254 3.57254 0.25 7.65625 0.25H26.8926C30.9763 0.25 34.2988 3.57254 34.2988 7.65625V11.4844C34.2988 12.4035 33.5539 13.1484 32.6348 13.1484C31.7156 13.1484 30.9707 12.4035 30.9707 11.4844V7.65625C30.9707 5.40748 29.1413 3.57812 26.8926 3.57812H7.65625C5.40748 3.57812 3.57812 5.40748 3.57812 7.65625V41.3438C3.57812 43.5925 5.40748 45.4219 7.65625 45.4219H26.8926C29.1413 45.4219 30.9707 43.5925 30.9707 41.3438V37.5156C30.9707 36.5965 31.7156 35.8516 32.6348 35.8516C33.5539 35.8516 34.2988 36.5965 34.2988 37.5156Z" fill="#C23E24" stroke="#D9D9D9" stroke-width="0.5"/>
</svg>