<svg width="130" height="130" viewBox="0 0 130 130" fill="none" xmlns="http://www.w3.org/2000/svg">
<circle cx="65" cy="65" r="65" fill="#D9D9D9"/>
<path d="M66.1206 63.1326C63.9122 63.1326 62.0094 62.3036 60.4143 60.6056C58.8163 58.9045 58.0029 56.8335 58.0029 54.3944C58.0029 51.9553 58.8163 49.8843 60.4143 48.1832C62.0094 46.4852 63.9122 45.6562 66.1206 45.6562C68.329 45.6562 70.2318 46.4852 71.8269 48.1832L72.7304 47.3344L71.8269 48.1832C73.4249 49.8843 74.2383 51.9553 74.2383 54.3944C74.2383 56.8335 73.4249 58.9045 71.8269 60.6056C70.2318 62.3036 68.329 63.1326 66.1206 63.1326Z" stroke="#C23E24" stroke-width="3"/>
<path d="M54.7986 85.0492H53.5908C52.1928 84.8777 51.2335 84.1456 50.5583 83.07C49.6528 81.6275 49.2204 79.4747 49.3288 77.0366C49.4363 74.6224 50.0682 72.1029 51.0975 70.0421C52.1412 67.9525 53.4925 66.5252 54.9209 65.9686L54.9228 65.9679C55.62 65.6951 56.4231 65.7856 57.056 66.2037C59.8374 68.0812 62.9258 69.2801 66.0993 69.3615C69.2526 69.4424 72.3821 68.4153 75.2395 66.0443C76.4862 65.4568 77.7485 65.7746 79.0001 66.8371C80.3297 67.9658 81.386 69.7651 81.8139 71.3616L81.821 71.388L81.8291 71.4141C82.6903 74.215 83.2565 77.902 82.7006 80.757C82.4261 82.1662 81.9044 83.2415 81.1459 83.9473C80.4184 84.6242 79.3191 85.1056 77.5668 85.05L77.5431 85.0492H77.5193H54.7986Z" stroke="#C23E24" stroke-width="3"/>
</svg>
