<svg width="130" height="130" viewBox="-28 -15 130 100" xmlns="http://www.w3.org/2000/svg">
  <path d="M18.4953 71.64C15.6632 71.64 12.9408 71.01 10.3879 69.75C10.0787 69.6 9.84936 69.34 9.73966 69.02C9.62997 68.7 9.64991 68.36 9.7995 68.04C10.0089 67.6 10.4477 67.32 10.9363 67.32C11.1358 67.32 11.3253 67.36 11.4948 67.45C13.6887 68.53 16.0422 69.08 18.4854 69.08C22.7535 69.08 26.7624 67.41 29.784 64.39C32.8056 61.38 34.461 57.36 34.461 53.07C34.461 48.78 32.8056 44.77 29.794 41.75C26.7923 38.72 22.7834 37.06 18.5053 37.06C14.2272 37.06 10.2383 38.73 7.21667 41.75C2.41002 46.59 1.18343 53.96 4.16515 60.09C4.31473 60.4 4.33468 60.74 4.22498 61.07C4.11529 61.39 3.88592 61.65 3.57678 61.79C3.39728 61.88 3.21778 61.92 3.01833 61.92C2.52969 61.92 2.09091 61.65 1.88149 61.2C-1.58887 54.08 -0.172802 45.54 5.42166 39.93C7.44603 37.91 9.91917 36.37 12.5718 35.47L13.0505 35.31V16.62C13.0505 16.16 13.3097 15.74 13.7186 15.51L30.5219 6.28L30.5818 6.22C30.7114 6.11 30.861 6.02 31.0405 5.97L31.1103 5.95L41.641 0.15C41.8305 0.05 42.0399 0 42.2494 0C42.4588 0 42.6782 0.05 42.8676 0.15L70.7901 15.53C71.199 15.76 71.4483 16.19 71.4483 16.66V26.42C71.4483 27.13 70.8798 27.7 70.1718 27.7C69.4638 27.7 68.8953 27.13 68.8953 26.42V18.82L60.5984 23.39V32.23C60.5984 32.69 60.3391 33.11 59.9302 33.34L53.9568 36.65C53.7674 36.75 53.5679 36.8 53.3485 36.8C53.1291 36.8 52.9097 36.74 52.7003 36.62C52.3214 36.39 52.082 35.97 52.082 35.52V28.07L43.5358 32.77V60.62L68.9053 46.65V37.64C68.9053 36.93 69.4737 36.36 70.1818 36.36C70.8898 36.36 71.4582 36.93 71.4582 37.64V47.4C71.4582 47.86 71.199 48.28 70.7901 48.51L42.8676 63.89C42.6782 63.99 42.4688 64.04 42.2593 64.04C42.0499 64.04 41.8305 63.99 41.641 63.89L35.4981 60.51L35.179 61.17C34.2715 63.03 33.0649 64.72 31.5989 66.19C28.0987 69.7 23.4516 71.63 18.4953 71.63V71.64ZM18.5053 34.53C23.4516 34.53 28.0987 36.46 31.589 39.97C35.0892 43.48 37.0139 48.14 37.0139 53.09C37.0139 54.63 36.8344 56.13 36.4854 57.56L36.3557 58.09L40.9729 60.63V32.79L15.5934 18.82V34.76L16.3712 34.67C17.0793 34.59 17.7973 34.55 18.5053 34.55V34.53ZM54.605 26.67V33.36L58.0455 31.46V24.77L54.605 26.67ZM16.9596 16.66L42.2394 30.58L50.6859 25.93L25.4061 12.01L16.9596 16.66ZM28.0588 10.55L53.3286 24.47L56.7192 22.59L31.4394 8.67L28.0588 10.55ZM34.092 7.21L59.3618 21.13L67.5291 16.65L42.2494 2.74L34.102 7.22L34.092 7.21Z" fill="#C23E24"/>
  <path d="M18.4941 71.49C15.7517 71.49 13.1091 70.87 10.6359 69.66C10.2869 69.49 10.1473 69.08 10.3168 68.72C10.4365 68.48 10.6658 68.33 10.9351 68.33C11.0448 68.33 11.1445 68.35 11.2542 68.4C13.498 69.5 16.001 70.08 18.4941 70.08C22.9118 70.08 27.0703 68.35 30.1916 65.22C33.3229 62.1 35.0381 57.93 35.0381 53.49C35.0381 49.05 33.3229 44.89 30.2016 41.76C27.0902 38.62 22.9318 36.9 18.5041 36.9C14.0764 36.9 9.93786 38.63 6.80656 41.76C1.83038 46.77 0.553928 54.4 3.64534 60.76C3.72512 60.93 3.73509 61.12 3.67526 61.29C3.61542 61.46 3.48578 61.6 3.32623 61.68C3.2265 61.73 3.12678 61.75 3.01709 61.75C2.74783 61.75 2.5085 61.6 2.3988 61.36C-0.961861 54.46 0.414316 46.18 5.82927 40.75C7.89354 38.69 10.4165 37.16 13.129 36.31L13.6176 36.16V17.04C13.6176 16.79 13.7573 16.56 13.9866 16.43L30.8797 7.16L30.9495 7.09C31.0193 7.02 31.119 6.96 31.2287 6.94L31.3185 6.92L41.919 1.08C42.0187 1.03 42.1384 1 42.2581 1C42.3777 1 42.4974 1.03 42.5971 1.09L70.5096 16.46C70.739 16.59 70.8786 16.82 70.8786 17.08V26.84C70.8786 27.23 70.5595 27.54 70.1805 27.54C69.8016 27.54 69.4825 27.22 69.4825 26.84V18.26L60.0387 23.47V32.65C60.0387 32.9 59.8991 33.13 59.6697 33.26L53.6963 36.56C53.5966 36.61 53.4869 36.64 53.3573 36.64C53.2276 36.64 53.1179 36.61 52.9883 36.53C52.7888 36.41 52.6592 36.18 52.6592 35.93V27.51L42.9661 32.84V62.01L69.4825 47.41V38.06C69.4825 37.67 69.8016 37.36 70.1805 37.36C70.5595 37.36 70.8786 37.68 70.8786 38.06V47.82C70.8786 48.07 70.739 48.3 70.5096 48.43L42.5971 63.8C42.4974 63.85 42.3777 63.88 42.2581 63.88C42.1384 63.88 42.0187 63.85 41.919 63.79L35.2276 60.11L34.9185 60.8C34.011 62.82 32.7545 64.63 31.1988 66.19C27.8082 69.59 23.3007 71.46 18.5041 71.46L18.4941 71.49ZM18.5041 35.53C23.2908 35.53 27.7982 37.4 31.1789 40.8C34.5694 44.2 36.4343 48.71 36.4343 53.51C36.4343 55.15 36.2248 56.74 35.816 58.25L35.6664 58.79L41.5401 62.02V32.87L15.0038 18.27V35.87L15.8115 35.75C16.7091 35.61 17.5866 35.55 18.4941 35.55L18.5041 35.53ZM54.0354 26.76V34.77L58.6226 32.24V24.23L54.0354 26.76ZM15.7816 17.08L42.2581 31.66L51.8913 26.36L25.4149 11.78L15.7816 17.08ZM26.8808 10.98L53.3373 25.56L57.9246 23.03L31.4481 8.45L26.8808 10.99V10.98ZM32.9041 7.64L59.3606 22.22L68.7246 17.09L42.2481 2.5L32.9041 7.63V7.64Z" fill="#C23E24"/>
  <path d="M70.171 33.3002C69.822 33.3002 69.5028 33.1702 69.2635 32.9302C69.0341 32.6902 68.8945 32.3502 68.8945 32.0202C68.8945 31.6702 69.0242 31.3402 69.2635 31.1102C69.5128 30.8702 69.8419 30.7402 70.171 30.7402C70.52 30.7402 70.8591 30.8802 71.0785 31.1102C71.3178 31.3602 71.4474 31.6902 71.4474 32.0202C71.4474 32.3702 71.3178 32.6902 71.0785 32.9302C70.8292 33.1702 70.51 33.3002 70.171 33.3002Z" fill="#C23E24"/>
  <path d="M70.1707 32.7303C69.9713 32.7303 69.8017 32.6603 69.6721 32.5303C69.5524 32.4003 69.4727 32.2103 69.4727 32.0303C69.4727 31.8303 69.5425 31.6603 69.6621 31.5403C69.8017 31.4103 70.0012 31.3203 70.1807 31.3203C70.3702 31.3203 70.5596 31.3903 70.6693 31.5103C70.799 31.6503 70.8887 31.8503 70.8887 32.0303C70.8887 32.2303 70.8189 32.4003 70.6893 32.5303C70.5596 32.6603 70.3702 32.7303 70.1907 32.7303H70.1707Z" fill="#C23E24"/>
  <path d="M17.2091 61.0998C16.5011 61.0998 15.9327 60.5298 15.9327 59.8198C15.9327 59.1098 16.5011 58.5398 17.2091 58.5398H22.1155C24.1897 58.5398 25.8751 56.8498 25.8751 54.7698C25.8751 52.6898 24.1897 50.9998 22.1155 50.9998H13.5493L14.726 52.1998C15.2147 52.6998 15.2047 53.4998 14.726 53.9998C14.4767 54.2398 14.1576 54.3698 13.8186 54.3698C13.4795 54.3698 13.1604 54.2398 12.931 53.9998L9.56038 50.6398C9.32105 50.3998 9.19141 50.0798 9.19141 49.7398C9.19141 49.3998 9.32105 49.0798 9.56038 48.8398L12.931 45.4598C13.1704 45.2198 13.4895 45.0898 13.8285 45.0898C14.1676 45.0898 14.4867 45.2198 14.726 45.4598C15.2147 45.9498 15.2246 46.7598 14.726 47.2598L13.5493 48.4598H22.1155C25.5958 48.4598 28.428 51.2998 28.428 54.7898C28.428 58.2798 25.5958 61.1198 22.1155 61.1198H17.2091V61.0998Z" fill="#C23E24"/>
  <path d="M17.2073 60.5302C16.8184 60.5302 16.5093 60.2102 16.5093 59.8302C16.5093 59.4502 16.8284 59.1302 17.2073 59.1302H22.1137C24.507 59.1302 26.4516 57.1802 26.4516 54.7802C26.4516 52.3802 24.507 50.4302 22.1137 50.4302H12.1414L14.3054 52.6002C14.5746 52.8702 14.5746 53.3202 14.3054 53.5902C14.1658 53.7202 13.9962 53.7902 13.8068 53.7902C13.6173 53.7902 13.4478 53.7202 13.3181 53.5902L9.94749 50.2302C9.81785 50.1002 9.74805 49.9202 9.74805 49.7402C9.74805 49.5602 9.81785 49.3802 9.94749 49.2502L13.3181 45.8702C13.4478 45.7402 13.6273 45.6602 13.8068 45.6602C13.9863 45.6602 14.1658 45.7302 14.2954 45.8702C14.5647 46.1402 14.5647 46.5902 14.2954 46.8602L12.1314 49.0302H22.1037C25.2649 49.0302 27.8378 51.6102 27.8378 54.7802C27.8378 57.9502 25.2649 60.5302 22.1037 60.5302H17.1974H17.2073Z" fill="#C23E24"/>
  <path d="M6.32806 66.5798C5.94912 66.5798 5.59011 66.4098 5.36075 66.1198C4.912 65.5798 4.9818 64.7698 5.51033 64.3098C5.7397 64.1198 6.02889 64.0098 6.32806 64.0098C6.70701 64.0098 7.06601 64.1798 7.31532 64.4698C7.76407 65.0098 7.69427 65.8198 7.16574 66.2698C6.91643 66.4698 6.62723 66.5798 6.33803 66.5798H6.32806Z" fill="#C23E24"/>
  <path d="M6.32916 65.9998C6.11974 65.9998 5.93027 65.9098 5.8106 65.7598C5.55132 65.4498 5.59121 64.9998 5.89038 64.7498C6.01004 64.6398 6.1696 64.5898 6.32916 64.5898C6.53858 64.5898 6.73802 64.6798 6.87763 64.8498C7.11697 65.1398 7.07708 65.5898 6.78788 65.8398C6.64827 65.9498 6.48872 66.0098 6.32916 66.0098V65.9998Z" fill="#C23E24"/>
</svg>