<svg width="130" height="130" viewBox="0 0 130 130" fill="none" xmlns="http://www.w3.org/2000/svg">
<circle cx="65" cy="65" r="65" fill="#D9D9D9"/>
<path d="M47.4953 100.64C44.6632 100.64 41.9408 100.01 39.3879 98.75C39.0787 98.6 38.8494 98.34 38.7397 98.02C38.63 97.7 38.6499 97.36 38.7995 97.04C39.0089 96.6 39.4477 96.32 39.9363 96.32C40.1358 96.32 40.3253 96.36 40.4948 96.45C42.6887 97.53 45.0422 98.08 47.4854 98.08C51.7535 98.08 55.7624 96.41 58.784 93.39C61.8056 90.38 63.461 86.36 63.461 82.07C63.461 77.78 61.8056 73.77 58.794 70.75C55.7923 67.72 51.7834 66.06 47.5053 66.06C43.2272 66.06 39.2383 67.73 36.2167 70.75C31.41 75.59 30.1834 82.96 33.1651 89.09C33.3147 89.4 33.3347 89.74 33.225 90.07C33.1153 90.39 32.8859 90.65 32.5768 90.79C32.3973 90.88 32.2178 90.92 32.0183 90.92C31.5297 90.92 31.0909 90.65 30.8815 90.2C27.4111 83.08 28.8272 74.54 34.4217 68.93C36.446 66.91 38.9192 65.37 41.5718 64.47L42.0505 64.31V45.62C42.0505 45.16 42.3097 44.74 42.7186 44.51L59.5219 35.28L59.5818 35.22C59.7114 35.11 59.861 35.02 60.0405 34.97L60.1103 34.95L70.641 29.15C70.8305 29.05 71.0399 29 71.2494 29C71.4588 29 71.6782 29.05 71.8676 29.15L99.7901 44.53C100.199 44.76 100.448 45.19 100.448 45.66V55.42C100.448 56.13 99.8798 56.7 99.1718 56.7C98.4638 56.7 97.8953 56.13 97.8953 55.42V47.82L89.5984 52.39V61.23C89.5984 61.69 89.3391 62.11 88.9302 62.34L82.9568 65.65C82.7674 65.75 82.5679 65.8 82.3485 65.8C82.1291 65.8 81.9097 65.74 81.7003 65.62C81.3214 65.39 81.082 64.97 81.082 64.52V57.07L72.5358 61.77V89.62L97.9053 75.65V66.64C97.9053 65.93 98.4737 65.36 99.1818 65.36C99.8898 65.36 100.458 65.93 100.458 66.64V76.4C100.458 76.86 100.199 77.28 99.7901 77.51L71.8676 92.89C71.6782 92.99 71.4688 93.04 71.2593 93.04C71.0499 93.04 70.8305 92.99 70.641 92.89L64.4981 89.51L64.179 90.17C63.2715 92.03 62.0649 93.72 60.5989 95.19C57.0987 98.7 52.4516 100.63 47.4953 100.63V100.64ZM47.5053 63.53C52.4516 63.53 57.0987 65.46 60.589 68.97C64.0892 72.48 66.0139 77.14 66.0139 82.09C66.0139 83.63 65.8344 85.13 65.4854 86.56L65.3557 87.09L69.9729 89.63V61.79L44.5934 47.82V63.76L45.3712 63.67C46.0793 63.59 46.7973 63.55 47.5053 63.55V63.53ZM83.605 55.67V62.36L87.0455 60.46V53.77L83.605 55.67ZM45.9596 45.66L71.2394 59.58L79.6859 54.93L54.4061 41.01L45.9596 45.66ZM57.0588 39.55L82.3286 53.47L85.7192 51.59L60.4394 37.67L57.0588 39.55ZM63.092 36.21L88.3618 50.13L96.5291 45.65L71.2494 31.74L63.102 36.22L63.092 36.21Z" fill="#C23E24"/>
<path d="M47.4941 100.49C44.7517 100.49 42.1091 99.87 39.6359 98.66C39.2869 98.49 39.1473 98.08 39.3168 97.72C39.4365 97.48 39.6658 97.33 39.9351 97.33C40.0448 97.33 40.1445 97.35 40.2542 97.4C42.498 98.5 45.001 99.08 47.4941 99.08C51.9118 99.08 56.0703 97.35 59.1916 94.22C62.3229 91.1 64.0381 86.93 64.0381 82.49C64.0381 78.05 62.3229 73.89 59.2016 70.76C56.0902 67.62 51.9318 65.9 47.5041 65.9C43.0764 65.9 38.9379 67.63 35.8066 70.76C30.8304 75.77 29.5539 83.4 32.6453 89.76C32.7251 89.93 32.7351 90.12 32.6753 90.29C32.6154 90.46 32.4858 90.6 32.3262 90.68C32.2265 90.73 32.1268 90.75 32.0171 90.75C31.7478 90.75 31.5085 90.6 31.3988 90.36C28.0381 83.46 29.4143 75.18 34.8293 69.75C36.8935 67.69 39.4165 66.16 42.129 65.31L42.6176 65.16V46.04C42.6176 45.79 42.7573 45.56 42.9866 45.43L59.8797 36.16L59.9495 36.09C60.0193 36.02 60.119 35.96 60.2287 35.94L60.3185 35.92L70.919 30.08C71.0187 30.03 71.1384 30 71.2581 30C71.3777 30 71.4974 30.03 71.5971 30.09L99.5096 45.46C99.739 45.59 99.8786 45.82 99.8786 46.08V55.84C99.8786 56.23 99.5595 56.54 99.1805 56.54C98.8016 56.54 98.4825 56.22 98.4825 55.84V47.26L89.0387 52.47V61.65C89.0387 61.9 88.8991 62.13 88.6697 62.26L82.6963 65.56C82.5966 65.61 82.4869 65.64 82.3573 65.64C82.2276 65.64 82.1179 65.61 81.9883 65.53C81.7888 65.41 81.6592 65.18 81.6592 64.93V56.51L71.9661 61.84V91.01L98.4825 76.41V67.06C98.4825 66.67 98.8016 66.36 99.1805 66.36C99.5595 66.36 99.8786 66.68 99.8786 67.06V76.82C99.8786 77.07 99.739 77.3 99.5096 77.43L71.5971 92.8C71.4974 92.85 71.3777 92.88 71.2581 92.88C71.1384 92.88 71.0187 92.85 70.919 92.79L64.2276 89.11L63.9185 89.8C63.011 91.82 61.7545 93.63 60.1988 95.19C56.8082 98.59 52.3007 100.46 47.5041 100.46L47.4941 100.49ZM47.5041 64.53C52.2908 64.53 56.7982 66.4 60.1789 69.8C63.5694 73.2 65.4343 77.71 65.4343 82.51C65.4343 84.15 65.2248 85.74 64.816 87.25L64.6664 87.79L70.5401 91.02V61.87L44.0038 47.27V64.87L44.8115 64.75C45.7091 64.61 46.5866 64.55 47.4941 64.55L47.5041 64.53ZM83.0354 55.76V63.77L87.6226 61.24V53.23L83.0354 55.76ZM44.7816 46.08L71.2581 60.66L80.8913 55.36L54.4149 40.78L44.7816 46.08ZM55.8808 39.98L82.3373 54.56L86.9246 52.03L60.4481 37.45L55.8808 39.99V39.98ZM61.9041 36.64L88.3606 51.22L97.7246 46.09L71.2481 31.5L61.9041 36.63V36.64Z" fill="#C23E24"/>
<path d="M40 80.5954L45.5038 87.4598L52.7011 77" stroke="#C23E24" stroke-width="3" stroke-linecap="round"/>
<path d="M99.171 62.3002C98.822 62.3002 98.5028 62.1702 98.2635 61.9302C98.0341 61.6902 97.8945 61.3502 97.8945 61.0202C97.8945 60.6702 98.0242 60.3402 98.2635 60.1102C98.5128 59.8702 98.8419 59.7402 99.171 59.7402C99.52 59.7402 99.8591 59.8802 100.078 60.1102C100.318 60.3602 100.447 60.6902 100.447 61.0202C100.447 61.3702 100.318 61.6902 100.078 61.9302C99.8292 62.1702 99.51 62.3002 99.171 62.3002Z" fill="#C23E24"/>
<path d="M99.1707 61.7303C98.9713 61.7303 98.8017 61.6603 98.6721 61.5303C98.5524 61.4003 98.4727 61.2103 98.4727 61.0303C98.4727 60.8303 98.5425 60.6603 98.6621 60.5403C98.8017 60.4103 99.0012 60.3203 99.1807 60.3203C99.3702 60.3203 99.5596 60.3903 99.6693 60.5103C99.799 60.6503 99.8887 60.8503 99.8887 61.0303C99.8887 61.2303 99.8189 61.4003 99.6893 61.5303C99.5596 61.6603 99.3702 61.7303 99.1907 61.7303H99.1707Z" fill="#C23E24"/>
<path d="M35.3281 95.5798C34.9491 95.5798 34.5901 95.4098 34.3607 95.1198C33.912 94.5798 33.9818 93.7698 34.5103 93.3098C34.7397 93.1198 35.0289 93.0098 35.3281 93.0098C35.707 93.0098 36.066 93.1798 36.3153 93.4698C36.7641 94.0098 36.6943 94.8198 36.1657 95.2698C35.9164 95.4698 35.6272 95.5798 35.338 95.5798H35.3281Z" fill="#C23E24"/>
<path d="M35.3292 94.9998C35.1197 94.9998 34.9303 94.9098 34.8106 94.7598C34.5513 94.4498 34.5912 93.9998 34.8904 93.7498C35.01 93.6398 35.1696 93.5898 35.3292 93.5898C35.5386 93.5898 35.738 93.6798 35.8776 93.8498C36.117 94.1398 36.0771 94.5898 35.7879 94.8398C35.6483 94.9498 35.4887 95.0098 35.3292 95.0098V94.9998Z" fill="#C23E24"/>
</svg>
