<svg width="174" height="174" viewBox="0 0 174 174" fill="none" xmlns="http://www.w3.org/2000/svg">
<circle cx="87" cy="87" r="87" fill="#D9D9D9"/>
<path d="M134.292 113.928C134.436 115.644 127.61 116.404 111.979 119.051C95.9939 121.776 91.7487 120.57 91.6701 119.444C91.5653 118.068 90.9233 109.054 89.3772 103.38C89.2986 103.066 89.2069 102.764 89.1151 102.476C88.9579 101.952 88.7876 101.48 88.6173 101.048C88.46 100.668 88.2897 100.327 88.1194 100.026C87.8573 99.5674 87.5691 99.2136 87.2546 98.9909C87.0581 98.8599 86.8484 98.7681 86.6388 98.755C86.4292 98.7419 86.2195 98.8206 86.0361 99.0171C85.7872 99.2398 85.5644 99.6198 85.3417 100.131C85.1975 100.485 85.0534 100.904 84.9224 101.362C84.8045 101.755 84.6866 102.188 84.5817 102.646C84.5031 102.987 84.4376 103.341 84.359 103.721C83.2191 109.512 82.6819 118.474 82.053 119.719C81.293 121.212 79.9959 119.588 63.0284 118.526C46.2967 117.491 39.7455 113.403 40.0075 111.556C41.7108 100.17 42.7066 77.4375 47.2007 53.5388H47.2138L74.5453 52.2679L77.2051 52.1369L86.796 51.6914L95.6008 52.0976L98.2475 52.2286L126.365 53.5388H126.378C131.043 68.5148 132.143 88.2994 134.279 113.928H134.292Z" fill="#302950"/>
<path d="M87.4649 94.863L87.2946 98.7806C87.2946 98.8592 87.2815 98.9247 87.2553 98.9902C87.0588 98.8592 86.8491 98.7675 86.6395 98.7544C86.4299 98.7413 86.2202 98.8199 86.0368 99.0164C85.9975 98.9247 85.9844 98.833 85.9844 98.7282L86.1547 94.8106C86.1678 94.4437 86.443 94.1816 86.836 94.1816C87.2029 94.1947 87.478 94.4961 87.4649 94.863Z" fill="#D9D9D9"/>
<path d="M85.3434 100.129C85.1993 100.482 85.0552 100.902 84.9241 101.36C84.8062 101.753 84.6883 102.186 84.5835 102.644C83.7973 102.566 81.9892 102.133 80.0501 100.076C76.4076 96.1979 72.6079 86.7905 73.6692 64.1103C73.6954 63.6255 73.7216 63.1538 73.7478 62.669C73.8789 60.1534 74.0754 57.4805 74.3374 54.6504C75.2415 54.6635 76.1194 54.6897 76.9841 54.7028V54.7945C76.709 57.5722 76.5124 60.1796 76.3814 62.6297C76.329 63.56 76.2897 64.4641 76.2504 65.3419C75.3594 87.118 79.1853 95.176 81.7927 98.0978C83.4698 99.9976 84.8586 100.05 84.9241 100.05C85.0683 100.05 85.2124 100.076 85.3434 100.129Z" fill="#D9D9D9"/>
<path d="M92.7855 100.079C91.3836 101.573 90.0471 102.202 89.1169 102.477C88.9596 101.953 88.7893 101.481 88.619 101.049C88.4618 100.669 88.2914 100.328 88.1211 100.027C88.5666 99.9481 89.7196 99.5944 91.0429 98.1007C93.6372 95.1789 97.4631 87.1603 96.5983 65.5021C96.559 64.6111 96.5066 63.6808 96.4542 62.7375C96.3232 60.2742 96.1266 57.6407 95.8646 54.8237C96.7555 54.8237 97.6465 54.8236 98.5113 54.8105C98.7602 57.5489 98.9567 60.1301 99.0747 62.5671C99.0747 62.5802 99.0878 62.5802 99.0878 62.5933C99.114 63.1436 99.1402 63.6808 99.1664 64.2049C100.215 86.8196 96.4149 96.214 92.7855 100.079Z" fill="#D9D9D9"/>
<path d="M87.1615 67.0728C80.5841 67.0728 75.317 64.793 74.9894 64.6489C74.3605 64.3737 74.0591 63.6007 74.3212 62.9325C74.5832 62.2643 75.3039 61.9498 75.9328 62.225C76.0507 62.2774 87.3056 67.1252 96.8965 62.2512C97.5123 61.9367 98.2461 62.2119 98.5474 62.867C98.8357 63.5221 98.5867 64.3082 97.9709 64.6096C94.3547 66.4439 90.5812 67.0597 87.1746 67.0597L87.1615 67.0728Z" fill="#D9D9D9"/>
<path d="M126.392 54.1539C126.392 54.1539 114.561 54.6911 98.5105 54.809C97.6458 54.8221 96.7548 54.8221 95.8639 54.8221C91.8152 54.8483 87.5308 54.8221 83.1284 54.7828C81.3465 54.7566 79.2501 54.7304 76.9834 54.7042C76.1186 54.6911 75.2408 54.6649 74.3367 54.6518C62.2825 54.4552 47.2148 54.1539 47.2148 54.1539C47.2148 54.1539 47.2279 53.918 47.2279 53.5381C47.3066 51.8086 47.5031 47 47.7258 47C48.8657 47.0131 61.7716 47.2489 75.018 47.2883C75.8959 47.2883 76.7868 47.2883 77.6647 47.2883C80.39 47.2883 83.0891 47.2883 85.6833 47.262C88.6314 47.2358 91.8677 47.2227 95.1694 47.2227C96.0473 47.2096 96.9252 47.2096 97.803 47.2096C111.639 47.1703 125.894 47.2227 126.039 47.2227C126.196 47.2227 126.327 51.8217 126.379 53.525C126.392 53.8918 126.392 54.1146 126.392 54.1408V54.1539Z" fill="#222222"/>
</svg>
