<svg width="43" height="31" viewBox="0 0 43 31" fill="none" xmlns="http://www.w3.org/2000/svg">
<path fill-rule="evenodd" clip-rule="evenodd" d="M3.76031 0.0234375H39.0163C39.5777 0.0234375 40.1057 0.155439 40.5844 0.377L26.8352 14.1723C26.8343 14.1732 26.8323 14.1743 26.8323 14.1743C26.8314 14.1752 26.8303 14.1772 26.8303 14.1772L22.3604 18.662C21.8856 19.1369 20.8912 19.1369 20.4163 18.662L15.9456 14.1765L15.9453 14.1754L15.9445 14.1743C15.9441 14.1738 15.9436 14.1736 15.9431 14.1733C15.9429 14.1732 15.9428 14.1731 15.9426 14.1731L15.9416 14.1723L2.19201 0.377084C2.6708 0.155606 3.19889 0.0234375 3.76031 0.0234375ZM24.1343 20.4308L27.7168 16.8362L40.5839 29.7453C40.1051 29.9668 39.5772 30.0988 39.0158 30.0988H3.75981C3.19838 30.0988 2.67029 29.9667 2.19133 29.7452L15.0586 16.8362L18.6413 20.4308C20.1254 21.92 22.6816 21.8886 24.1343 20.4308ZM0.399846 2.12703C0.152052 2.62813 0 3.18437 0 3.78022V26.3374C0 26.9332 0.151885 27.4895 0.399763 27.9906L13.2893 15.0592L0.399846 2.12703ZM29.4843 15.0595L42.3737 2.1271C42.6215 2.62821 42.7736 3.18445 42.7736 3.78046V26.3376C42.7736 26.9336 42.6215 27.4899 42.3737 27.991L29.4843 15.0595Z" fill="#E13D1D"/>
</svg>
