<svg width="43" height="31" viewBox="0 0 43 31" fill="none" xmlns="http://www.w3.org/2000/svg">
<path d="M38.7646 0.445312H3.73535C1.67991 0.445312 0 2.11784 0 4.18066V26.5928C0 28.6563 1.68099 30.3281 3.73535 30.3281H38.7646C40.8201 30.3281 42.5 28.6556 42.5 26.5928V4.18066C42.5 2.11734 40.8193 0.445312 38.7646 0.445312ZM38.1911 2.93555C36.9834 4.14721 22.7977 18.3792 22.2149 18.9639C21.7281 19.4521 20.7721 19.4524 20.2851 18.9639L4.30894 2.93555H38.1911ZM2.49023 26.135V4.63845L13.2036 15.3867L2.49023 26.135ZM4.30894 27.8379L14.9617 17.1505L18.5215 20.7219C19.9802 22.1854 22.5204 22.1848 23.9786 20.7219L27.5384 17.1506L38.1911 27.8379H4.30894ZM40.0098 26.135L29.2964 15.3867L40.0098 4.63845V26.135Z" fill="#E13D1D"/>
</svg>
