<svg width="130" height="101" viewBox="0 0 130 101" fill="none" xmlns="http://www.w3.org/2000/svg">
<path d="M125.381 64.8604C125.361 63.1804 124.304 61.1504 122.928 60.2404C121.971 59.6104 120.624 59.2804 119.029 59.2804C118.331 59.2804 117.593 59.3404 116.855 59.4704L116.157 59.5804L115.887 59.2604C114.621 57.8204 113.235 56.8604 110.602 56.8604C108.707 56.8604 106.145 57.3604 102.884 58.1004C93.7988 60.1904 89.6802 60.7304 82.8093 60.7504C82.6996 60.7504 82.58 60.7504 82.4703 60.7504C76.7163 60.7504 72.2786 60.2404 70.2841 59.3504C69.1872 58.8704 67.0631 57.2204 63.1838 53.8404C53.9694 45.7504 51.3368 43.7404 45.6226 40.4004C38.7118 36.3604 32.0104 34.4004 25.1595 34.4004C23.524 34.4004 21.8686 34.5204 20.2232 34.7404C17.0021 35.1704 14.2697 35.9404 11.0786 37.3104C7.26917 38.9704 5.06529 40.3404 3.20047 42.1804C-0.0405247 45.3504 0.119032 47.1104 2.32291 51.5304C3.10075 53.1204 4.87582 56.4704 6.27194 58.9904C11.7368 68.7604 13.5816 71.4004 18.5877 76.6104C27.0442 85.4304 39.7888 93.6904 50.3096 97.1704C56.9611 99.3604 62.6952 100.33 68.908 100.33C70.1944 100.33 71.5207 100.29 72.867 100.2C83.7866 99.5204 93.4597 97.0404 102.435 92.6204C111.559 88.1304 117.363 83.8304 126.299 74.9204C127.056 74.1704 128.582 72.1704 128.881 70.7504C129.47 67.9204 128.133 65.6604 125.401 64.8304L125.381 64.8604ZM24.4315 38.7504H24.5013C26.1766 38.7504 28.58 38.9604 30.3351 39.2704C34.8326 40.0604 38.2531 41.3504 42.98 44.0204C47.2082 46.4404 50.878 49.0604 54.8969 52.5104C64.8392 61.1004 65.1185 61.3204 69.596 64.3804C73.565 67.1004 77.0753 69.0204 82.5401 71.4804C83.7667 72.0404 84.6243 72.4904 84.9534 72.6904C84.8537 73.3704 83.7866 74.5804 82.2309 75.3704C80.5556 76.2304 78.5811 76.6504 76.2176 76.6504C72.7772 76.6504 68.4193 75.7504 62.9146 73.9104C60.2819 73.0204 53.9994 69.9904 51.6958 68.4904C50.888 67.9704 49.452 66.9204 48.5744 66.1904C47.0686 64.9604 46.3606 64.5704 45.6725 64.5704C45.4631 64.5704 45.2537 64.6104 45.0642 64.6904C44.3362 64.9804 43.8575 65.6204 43.8276 66.3704C43.7877 67.2304 44.1966 68.4304 47.5672 70.8204C49.4819 72.1804 52.0947 73.7304 54.7373 75.0804C62.785 79.1604 72.1888 81.4004 81.2237 81.4004C83.6969 81.4004 86.15 81.2304 88.5135 80.9004C96.6509 79.7704 103.641 77.3504 116.246 71.3204C119.956 69.5504 121.891 68.8604 123.137 68.8604C123.516 68.8604 123.845 68.9204 124.194 69.0604C124.573 69.2104 124.603 69.3504 124.613 69.4104C124.723 69.9404 124.164 70.9204 123.915 71.1704C123.566 71.4704 122.08 72.8404 120.604 74.2404C113.474 80.9804 108.478 84.6304 101.517 88.2104C96.7805 90.6304 92.7218 92.1504 87.0376 93.6204C81.1041 95.1404 75.001 95.9404 69.3866 95.9404C68.7883 95.9404 68.1899 95.9404 67.6016 95.9104C60.7905 95.7104 55.5351 94.6204 48.8736 92.0304C37.0664 87.4504 23.0055 76.6604 16.1545 66.9404C13.2924 62.8904 9.16391 55.5504 6.80047 50.9104C5.41432 48.2104 6.3218 44.8704 8.90463 43.3004C8.92457 43.2904 8.94452 43.2704 8.97443 43.2604C10.7296 42.2304 14.6886 40.5404 16.683 39.9704C18.1988 39.5404 21.4099 38.9904 23.5539 38.7904C23.7933 38.7704 24.0924 38.7604 24.4415 38.7604L24.4315 38.7504ZM109.465 61.1204C109.555 61.1104 109.705 61.0904 109.924 61.0904C110.283 61.0904 110.662 61.1304 110.991 61.1804C109.924 61.5504 108.478 62.0404 106.673 62.6604C97.9074 65.6404 92.283 66.7504 85.9107 66.7504H82.4802L80.3462 65.6804C79.9971 65.5104 79.6282 65.3104 79.2293 65.1004C79.8176 65.1104 80.4459 65.1204 81.134 65.1204C81.9019 65.1204 82.7694 65.1204 83.7966 65.1004C90.9866 64.9504 94.3174 64.5004 103.552 62.4204C104.908 62.1204 109.027 61.1904 109.475 61.1304L109.465 61.1204ZM121.033 64.6004C121.033 64.6004 121.053 64.6604 121.053 64.6904C119.497 65.0804 117.004 66.0604 114.132 67.4204C106.912 70.8304 100.331 73.5604 96.5412 74.7104C93.9683 75.4904 90.5877 76.1904 87.626 76.5804C88.7528 75.3004 89.421 73.8904 89.421 72.6204C89.421 72.0604 89.3113 71.5804 89.1218 71.1504C95.2946 70.7504 103.711 68.5504 114.741 64.4704C116.386 63.8604 117.872 63.5404 119.069 63.5404C119.458 63.5404 119.807 63.5804 120.106 63.6404C120.564 63.7504 120.844 63.9304 121.033 64.6004Z" fill="#C23E24"/>
<path d="M80.4647 46.82L81.1628 47.27C82.5489 48.16 83.3866 48.7 84.4038 48.7C85.3811 48.7 86.1689 48.19 87.2459 47.5C87.2459 47.5 87.7445 47.18 87.904 47.08C96.0913 41.9 103.76 35.37 107.44 30.46C110.651 26.19 112.735 20.64 112.755 16.32C112.775 13.66 111.877 10.51 110.471 8.24C110.97 7.72 111.848 6.88 112.486 6.27C113.982 4.83 114.68 4.15 115.099 3.62C115.348 3.31 116.086 2.37 115.458 1.23C115.079 0.49 114.331 0 113.593 0C113.224 0 112.615 0 110.441 2.15C109.175 3.36 107.908 4.58 106.632 5.79C106.652 5.6 106.652 5.39 106.632 5.18V5.14C106.323 3.23 103.431 2.46 101.746 2.17C100.998 2.04 100.22 1.98 99.4221 1.98C96.7794 1.98 94.0669 2.69 91.7833 3.97C89.8088 5.1 87.6547 6.94 85.9993 8.91C85.5007 9.52 84.9024 10.22 84.4736 10.72L84.3938 10.81C83.955 10.3 83.3168 9.56 82.7683 8.89C79.0287 4.41 74.2919 1.95 69.4054 1.95C68.7373 1.95 68.0691 2 67.401 2.09C62.1655 2.84 58.0869 6.73 56.4913 12.5C55.0952 17.55 57.0298 24.76 61.3179 30.46C64.9179 35.25 72.796 41.98 80.4547 46.82H80.4647ZM80.4647 12.83C81.9306 14.62 82.9977 15.8 84.3938 15.8C84.8226 15.8 85.2315 15.69 85.6603 15.47C86.4381 15.07 87.7744 13.5 88.3229 12.83C89.1805 11.76 90.2974 10.51 90.806 10.04C92.0625 8.85 94.3761 7.37 95.7323 6.89C96.7096 6.56 97.9462 6.38 99.2226 6.38C100.699 6.38 102.115 6.63 103.092 7.05C103.71 7.33 104.239 7.46 104.697 7.46C104.767 7.46 104.847 7.46 104.917 7.45C95.5029 16.45 86.6076 24.92 83.8852 27.48C83.3168 27.01 82.4093 26.24 81.083 25.07C71.4697 16.48 71.1905 16.33 70.8913 16.17C70.5722 15.99 70.2232 15.9 69.8741 15.9C69.1063 15.9 68.3982 16.34 68.0293 17.06C67.6503 17.79 67.7101 18.66 68.1689 19.31C68.4082 19.65 68.5678 19.87 80.1356 30.09C82.9877 32.64 83.5162 32.64 83.9351 32.64C84.7927 32.64 84.9921 32.64 94.1667 23.79C100.958 17.27 105.346 13.06 107.22 11.37C108.267 13.48 108.666 15.89 108.317 18.16C107.859 21.13 106.183 24.99 104.249 27.55C101.377 31.37 96.6398 35.66 90.1777 40.29C88.3329 41.6 85.5406 43.39 84.3838 44.07C83.2171 43.38 80.4248 41.6 78.5899 40.29C70.1035 34.23 64.8581 29.01 62.5445 24.32C59.7921 18.72 59.6525 14.15 62.1257 10.36C63.9606 7.54 66.0647 6.38 69.3855 6.38C69.6348 6.38 69.8941 6.38 70.1534 6.4C72.3473 6.53 73.7135 6.99 75.5783 8.2C77.4531 9.44 78.55 10.48 80.4647 12.84V12.83Z" fill="#C23E24"/>
</svg>
