<svg width="108" height="109" viewBox="0 0 108 109" fill="none" xmlns="http://www.w3.org/2000/svg">
  <path d="M55.4413 11.6398C55.4413 12.541 54.7107 13.2716 53.8095 13.2716C52.9086 13.2716 52.1779 12.541 52.1777 11.6398C52.1777 11.6397 52.1777 11.6397 52.1777 11.6397V2.13178C52.1777 1.23058 52.9083 0.5 53.8095 0.5C54.7107 0.5 55.4413 1.23058 55.4413 2.13178V11.6398Z" fill="white" stroke="#EC8562"/>
  <mask id="path-2-inside-1_15_1748" fill="white">
    <path d="M105.919 73.2371L102.153 69.4818C100.813 68.1438 99.028 67.4067 97.1255 67.4067C95.909 67.4067 94.7411 67.7094 93.7063 68.2765L86.6097 61.1884L86.9553 60.8431C89.8343 57.9584 89.8333 53.2709 86.9551 50.3959C85.9266 49.3655 84.6432 48.6784 83.2442 48.3892C83.4369 47.7244 83.5383 47.028 83.5383 46.3153C83.5383 44.335 82.769 42.4782 81.3766 41.0915C80.3479 40.0611 79.0647 39.374 77.6658 39.0849C77.8584 38.42 77.9598 37.7238 77.9598 37.0109C77.9598 35.0305 77.1906 33.1739 75.7958 31.7851C74.7425 30.733 73.4477 30.0671 72.0881 29.7837C72.8155 27.276 72.194 24.4546 70.2212 22.4784C68.579 20.8432 66.3507 20.1404 64.2033 20.3682L50.1407 17.7064C47.996 17.2995 45.3176 17.0305 43.627 18.5725C43.5203 18.6699 43.4115 18.7819 43.3044 18.9066C40.683 17.9511 37.6256 18.52 35.5264 20.6169C34.1338 22.0078 33.3667 23.8638 33.3667 25.8429C33.3667 26.5558 33.4677 27.252 33.6601 27.9171C32.2626 28.2061 30.9809 28.8923 29.9558 29.9194C28.5604 31.309 27.791 33.1628 27.7895 35.1397C27.7889 35.8543 27.8903 36.5528 28.0837 37.2196C26.6856 37.5079 25.4031 38.1929 24.3748 39.2199C22.9794 40.6138 22.211 42.4708 22.211 44.4489C22.211 45.9641 22.6634 47.4075 23.5016 48.6267C22.4432 48.9855 21.4738 49.5827 20.662 50.3936C17.7811 53.2709 17.78 57.9586 20.6639 60.8476L21.0083 61.1905L13.9108 68.275C11.2732 67.0331 8.02332 67.4984 5.84667 69.6723L2.07843 73.4299C0.73811 74.7686 0.000211675 76.5543 0 78.4578C0 80.3616 0.73811 82.1475 2.07843 83.4864L6.78121 88.1834C7.61415 89.0155 8.964 89.0147 9.79588 88.1818C10.628 87.3488 10.6271 85.999 9.79419 85.1671L5.09141 80.47C4.55757 79.9368 4.26355 79.2222 4.26355 78.4581C4.26355 77.6941 4.55757 76.9797 5.09014 76.4478L8.85859 72.6899C9.80011 71.7495 11.2412 71.6093 12.3356 72.2636C12.4126 72.3794 12.5017 72.4895 12.6037 72.5917C12.7864 72.7748 12.9949 72.9151 13.2163 73.0178L34.8268 94.5966C34.9295 94.8203 35.0705 95.0309 35.2544 95.2151C35.4335 95.3944 35.6378 95.533 35.8545 95.635C36.3115 96.1517 36.5641 96.8117 36.5641 97.5158C36.5641 98.2799 36.27 98.9943 35.7362 99.5275L31.9716 103.288C30.8592 104.395 29.0498 104.395 27.9408 103.291L23.2381 98.5879C22.4056 97.7554 21.0559 97.7554 20.2234 98.5879C19.3909 99.4204 19.3909 100.77 20.2234 101.603L24.9296 106.309C26.3148 107.689 28.1339 108.378 29.9539 108.378C31.7743 108.378 33.5955 107.688 34.9824 106.307L38.7494 102.544C40.0897 101.205 40.8278 99.4198 40.8278 97.5158C40.8278 96.157 40.45 94.8595 39.7474 93.7405L47.7352 85.7625C47.7437 85.7538 47.7521 85.7452 47.7608 85.7365C48.6754 84.7909 51.2225 84.9679 53.6858 85.1389C55.4359 85.2607 57.3871 85.3959 59.2935 85.1762L68.0407 93.9131C67.4741 94.9462 67.1716 96.1126 67.1716 97.3272C67.1716 99.2291 67.9097 101.014 69.25 102.353L73.0172 106.115C74.3567 107.453 76.1421 108.19 78.0447 108.19C79.947 108.19 81.7325 107.453 83.0722 106.115L105.921 83.2944C107.261 81.9558 107.999 80.1701 107.999 78.2663C107.999 76.3627 107.261 74.577 105.919 73.2371ZM49.3469 21.8954L58.5943 23.6457L53.0592 29.1787C52.203 28.7672 51.0295 27.9997 49.7421 26.7682C47.9799 25.0824 46.7194 23.136 46.6046 21.9221C46.6044 21.9214 46.6044 21.9208 46.6044 21.9202C46.6044 21.92 46.6042 21.9197 46.6042 21.9195C46.596 21.8323 46.5938 21.7627 46.5949 21.7096C46.8737 21.6418 47.6141 21.5667 49.3469 21.8954ZM38.5392 23.6335C39.6192 22.5546 41.2969 22.4301 42.5172 23.2565C43.2087 26.156 45.6822 28.7839 46.7949 29.8487C47.6196 30.6378 50.2658 33.0037 52.9367 33.6539C53.298 34.1719 53.4946 34.7894 53.4946 35.4409C53.4946 36.2802 53.1718 37.0649 52.5836 37.6525C51.997 38.2401 51.2111 38.5635 50.3703 38.5635C49.5293 38.5635 48.7434 38.2401 48.1541 37.6497L48.1539 37.6495L48.1528 37.6484L38.539 28.052C37.9529 27.4667 37.63 26.682 37.63 25.8429C37.6303 25.0036 37.9531 24.219 38.5392 23.6335ZM32.9688 32.9359C33.5553 32.3485 34.3404 32.0249 35.1799 32.0249C36.0205 32.0249 36.8081 32.3492 37.3985 32.9389L45.1398 40.6648C46.3589 41.8858 46.3589 43.8725 45.1441 45.0892C44.5543 45.6766 43.7656 46.0001 42.9234 46.0001C42.0811 46.0001 41.2924 45.6766 40.7053 45.0918L40.705 45.0916L34.8321 39.2199C34.823 39.2108 34.8131 39.2024 34.8038 39.193L32.9664 37.3565C32.3769 36.7677 32.0524 35.9815 32.0531 35.1429C32.0539 34.3069 32.3773 33.5248 32.9688 32.9359ZM27.3877 42.2365C27.9747 41.6504 28.7615 41.3276 29.6036 41.3276C30.4386 41.3276 31.2186 41.6457 31.8031 42.2217L37.694 48.1098C38.2814 48.6949 38.605 49.4787 38.605 50.317C38.605 51.155 38.2814 51.9388 37.6916 52.5262C37.1049 53.1121 36.3189 53.4349 35.4784 53.4349C34.6365 53.4349 33.8481 53.1113 33.2604 52.5262L31.1249 50.3932C31.1244 50.3925 31.1238 50.3921 31.1234 50.3917L27.388 46.6607C26.7991 46.0725 26.4748 45.2867 26.4748 44.4485C26.4748 43.6105 26.7991 42.8245 27.3877 42.2365ZM23.675 53.41C24.2645 52.8211 25.0523 52.4968 25.8933 52.4968C26.7341 52.4968 27.5217 52.8209 28.111 53.4093L30.2496 55.5453C30.8372 56.1304 31.1606 56.9142 31.1606 57.7525C31.1606 58.5907 30.837 59.3743 30.2451 59.964C29.6586 60.5514 28.8726 60.8751 28.0319 60.8751C27.1909 60.8751 26.4049 60.5517 25.8142 59.9598L25.5464 59.6931C25.5428 59.6895 25.54 59.6857 25.5366 59.6823C25.5326 59.6785 25.5284 59.6751 25.5244 59.6713L23.6771 57.8312C22.458 56.6096 22.457 54.6264 23.675 53.41ZM67.1178 77.6378C66.2857 76.8047 64.9359 76.804 64.1031 77.6359L62.2065 79.5302C60.4043 81.3324 57.1388 81.1055 53.9809 80.8864C50.5515 80.648 47.0053 80.4021 44.7106 82.758L36.8585 90.6006L17.2229 70.9938L24.1718 64.0574C25.3203 64.7614 26.6456 65.1388 28.0323 65.1388C30.0134 65.1388 31.871 64.3709 33.2585 62.9808C34.6554 61.5897 35.4248 59.7331 35.4248 57.7527C35.4248 57.7343 35.4235 57.7161 35.4235 57.6976C35.442 57.6978 35.4604 57.6989 35.4788 57.6989C37.4571 57.6989 39.3133 56.9333 40.7027 55.5455C42.0996 54.1544 42.869 52.2976 42.869 50.3174C42.869 50.299 42.8677 50.2808 42.8677 50.2624C42.8863 50.2624 42.905 50.2636 42.9238 50.2636C44.9015 50.2636 46.7587 49.4988 48.1575 48.1058C49.6096 46.6514 50.3278 44.7366 50.314 42.8258C50.3331 42.826 50.3521 42.8271 50.3712 42.8271C52.3522 42.8269 54.2097 42.0591 55.5993 40.6669C56.9919 39.276 57.759 37.4201 57.759 35.4409C57.759 34.0568 57.3827 32.7336 56.681 31.5874L62.7715 25.4994C63.2253 25.0475 63.785 24.7638 64.3715 24.6468C64.435 24.64 64.4977 24.6298 64.5597 24.6175C65.5008 24.4878 66.4891 24.7782 67.2088 25.4949C68.4279 26.7161 68.4279 28.7029 67.2133 29.9196L65.3584 31.7669C65.3522 31.773 65.3457 31.7785 65.3395 31.7846L63.2031 33.9175C62.3699 34.7493 62.3691 36.0992 63.2012 36.9321C64.0335 37.7653 65.3831 37.7659 66.2159 36.934L68.0782 35.0743C68.0786 35.0738 68.079 35.0734 68.0794 35.073L68.361 34.7925C69.5834 33.5813 71.5638 33.5839 72.785 34.8033C73.3726 35.3884 73.6962 36.1722 73.6962 37.0105C73.6962 37.8485 73.3726 38.6323 72.7803 39.222L70.9148 41.0913C70.9146 41.0915 70.9144 41.0918 70.9142 41.0922L68.778 43.2197C67.9438 44.0505 67.941 45.4004 68.7718 46.2344C69.6027 47.0686 70.9523 47.0711 71.7865 46.2405L73.9325 44.1033C74.519 43.5156 75.305 43.1922 76.1457 43.1922C76.9867 43.1922 77.7729 43.5156 78.3637 44.1075C78.9513 44.6928 79.2747 45.4766 79.2747 46.3148C79.2747 47.1529 78.9513 47.9367 78.3603 48.5251L74.6412 52.2457C73.8088 53.0785 73.8091 54.4281 74.6416 55.2604C75.0579 55.6766 75.6032 55.8844 76.1487 55.8844C76.6944 55.8844 77.2401 55.6761 77.6562 55.2598L79.479 53.4364C79.4893 53.4265 79.5006 53.4178 79.5109 53.4074C80.0975 52.8198 80.8834 52.4964 81.7242 52.4964C82.5652 52.4964 83.3511 52.8198 83.9398 53.4095C85.1576 54.626 85.1565 56.6094 83.9398 57.8282L82.0866 59.6793C82.086 59.68 82.0851 59.6806 82.0845 59.6812C82.0838 59.6819 82.0832 59.6827 82.0826 59.6834L79.1411 62.6212C78.3082 63.4533 78.3074 64.8031 79.1392 65.6361C79.5556 66.0529 80.1017 66.2614 80.6476 66.2614C81.1927 66.2614 81.738 66.0535 82.1541 65.638L83.5929 64.2009L90.4886 71.0886L70.8547 90.6986L63.8199 83.6722C64.3104 83.3568 64.7796 82.986 65.2201 82.5455L67.1157 80.6523C67.9491 79.8206 67.9499 78.4708 67.1178 77.6378ZM102.907 80.2778L80.059 103.098C79.5245 103.632 78.809 103.926 78.0445 103.926C77.2799 103.926 76.5644 103.632 76.0297 103.098L72.2626 99.3357C71.7287 98.8027 71.4347 98.0894 71.4347 97.3272C71.4347 96.5651 71.7287 95.8518 72.2626 95.3186L95.1109 72.4979C95.6456 71.9639 96.3609 71.6699 97.1257 71.6699C97.8902 71.6699 98.6057 71.9639 99.1416 72.4992L102.908 76.2545C103.441 76.7877 103.735 77.5019 103.735 78.2661C103.735 79.0304 103.441 79.7448 102.907 80.2778Z"/>
  </mask>
  <path d="M105.919 73.2371L102.153 69.4818C100.813 68.1438 99.028 67.4067 97.1255 67.4067C95.909 67.4067 94.7411 67.7094 93.7063 68.2765L86.6097 61.1884L86.9553 60.8431C89.8343 57.9584 89.8333 53.2709 86.9551 50.3959C85.9266 49.3655 84.6432 48.6784 83.2442 48.3892C83.4369 47.7244 83.5383 47.028 83.5383 46.3153C83.5383 44.335 82.769 42.4782 81.3766 41.0915C80.3479 40.0611 79.0647 39.374 77.6658 39.0849C77.8584 38.42 77.9598 37.7238 77.9598 37.0109C77.9598 35.0305 77.1906 33.1739 75.7958 31.7851C74.7425 30.733 73.4477 30.0671 72.0881 29.7837C72.8155 27.276 72.194 24.4546 70.2212 22.4784C68.579 20.8432 66.3507 20.1404 64.2033 20.3682L50.1407 17.7064C47.996 17.2995 45.3176 17.0305 43.627 18.5725C43.5203 18.6699 43.4115 18.7819 43.3044 18.9066C40.683 17.9511 37.6256 18.52 35.5264 20.6169C34.1338 22.0078 33.3667 23.8638 33.3667 25.8429C33.3667 26.5558 33.4677 27.252 33.6601 27.9171C32.2626 28.2061 30.9809 28.8923 29.9558 29.9194C28.5604 31.309 27.791 33.1628 27.7895 35.1397C27.7889 35.8543 27.8903 36.5528 28.0837 37.2196C26.6856 37.5079 25.4031 38.1929 24.3748 39.2199C22.9794 40.6138 22.211 42.4708 22.211 44.4489C22.211 45.9641 22.6634 47.4075 23.5016 48.6267C22.4432 48.9855 21.4738 49.5827 20.662 50.3936C17.7811 53.2709 17.78 57.9586 20.6639 60.8476L21.0083 61.1905L13.9108 68.275C11.2732 67.0331 8.02332 67.4984 5.84667 69.6723L2.07843 73.4299C0.73811 74.7686 0.000211675 76.5543 0 78.4578C0 80.3616 0.73811 82.1475 2.07843 83.4864L6.78121 88.1834C7.61415 89.0155 8.964 89.0147 9.79588 88.1818C10.628 87.3488 10.6271 85.999 9.79419 85.1671L5.09141 80.47C4.55757 79.9368 4.26355 79.2222 4.26355 78.4581C4.26355 77.6941 4.55757 76.9797 5.09014 76.4478L8.85859 72.6899C9.80011 71.7495 11.2412 71.6093 12.3356 72.2636C12.4126 72.3794 12.5017 72.4895 12.6037 72.5917C12.7864 72.7748 12.9949 72.9151 13.2163 73.0178L34.8268 94.5966C34.9295 94.8203 35.0705 95.0309 35.2544 95.2151C35.4335 95.3944 35.6378 95.533 35.8545 95.635C36.3115 96.1517 36.5641 96.8117 36.5641 97.5158C36.5641 98.2799 36.27 98.9943 35.7362 99.5275L31.9716 103.288C30.8592 104.395 29.0498 104.395 27.9408 103.291L23.2381 98.5879C22.4056 97.7554 21.0559 97.7554 20.2234 98.5879C19.3909 99.4204 19.3909 100.77 20.2234 101.603L24.9296 106.309C26.3148 107.689 28.1339 108.378 29.9539 108.378C31.7743 108.378 33.5955 107.688 34.9824 106.307L38.7494 102.544C40.0897 101.205 40.8278 99.4198 40.8278 97.5158C40.8278 96.157 40.45 94.8595 39.7474 93.7405L47.7352 85.7625C47.7437 85.7538 47.7521 85.7452 47.7608 85.7365C48.6754 84.7909 51.2225 84.9679 53.6858 85.1389C55.4359 85.2607 57.3871 85.3959 59.2935 85.1762L68.0407 93.9131C67.4741 94.9462 67.1716 96.1126 67.1716 97.3272C67.1716 99.2291 67.9097 101.014 69.25 102.353L73.0172 106.115C74.3567 107.453 76.1421 108.19 78.0447 108.19C79.947 108.19 81.7325 107.453 83.0722 106.115L105.921 83.2944C107.261 81.9558 107.999 80.1701 107.999 78.2663C107.999 76.3627 107.261 74.577 105.919 73.2371ZM49.3469 21.8954L58.5943 23.6457L53.0592 29.1787C52.203 28.7672 51.0295 27.9997 49.7421 26.7682C47.9799 25.0824 46.7194 23.136 46.6046 21.9221C46.6044 21.9214 46.6044 21.9208 46.6044 21.9202C46.6044 21.92 46.6042 21.9197 46.6042 21.9195C46.596 21.8323 46.5938 21.7627 46.5949 21.7096C46.8737 21.6418 47.6141 21.5667 49.3469 21.8954ZM38.5392 23.6335C39.6192 22.5546 41.2969 22.4301 42.5172 23.2565C43.2087 26.156 45.6822 28.7839 46.7949 29.8487C47.6196 30.6378 50.2658 33.0037 52.9367 33.6539C53.298 34.1719 53.4946 34.7894 53.4946 35.4409C53.4946 36.2802 53.1718 37.0649 52.5836 37.6525C51.997 38.2401 51.2111 38.5635 50.3703 38.5635C49.5293 38.5635 48.7434 38.2401 48.1541 37.6497L48.1539 37.6495L48.1528 37.6484L38.539 28.052C37.9529 27.4667 37.63 26.682 37.63 25.8429C37.6303 25.0036 37.9531 24.219 38.5392 23.6335ZM32.9688 32.9359C33.5553 32.3485 34.3404 32.0249 35.1799 32.0249C36.0205 32.0249 36.8081 32.3492 37.3985 32.9389L45.1398 40.6648C46.3589 41.8858 46.3589 43.8725 45.1441 45.0892C44.5543 45.6766 43.7656 46.0001 42.9234 46.0001C42.0811 46.0001 41.2924 45.6766 40.7053 45.0918L40.705 45.0916L34.8321 39.2199C34.823 39.2108 34.8131 39.2024 34.8038 39.193L32.9664 37.3565C32.3769 36.7677 32.0524 35.9815 32.0531 35.1429C32.0539 34.3069 32.3773 33.5248 32.9688 32.9359ZM27.3877 42.2365C27.9747 41.6504 28.7615 41.3276 29.6036 41.3276C30.4386 41.3276 31.2186 41.6457 31.8031 42.2217L37.694 48.1098C38.2814 48.6949 38.605 49.4787 38.605 50.317C38.605 51.155 38.2814 51.9388 37.6916 52.5262C37.1049 53.1121 36.3189 53.4349 35.4784 53.4349C34.6365 53.4349 33.8481 53.1113 33.2604 52.5262L31.1249 50.3932C31.1244 50.3925 31.1238 50.3921 31.1234 50.3917L27.388 46.6607C26.7991 46.0725 26.4748 45.2867 26.4748 44.4485C26.4748 43.6105 26.7991 42.8245 27.3877 42.2365ZM23.675 53.41C24.2645 52.8211 25.0523 52.4968 25.8933 52.4968C26.7341 52.4968 27.5217 52.8209 28.111 53.4093L30.2496 55.5453C30.8372 56.1304 31.1606 56.9142 31.1606 57.7525C31.1606 58.5907 30.837 59.3743 30.2451 59.964C29.6586 60.5514 28.8726 60.8751 28.0319 60.8751C27.1909 60.8751 26.4049 60.5517 25.8142 59.9598L25.5464 59.6931C25.5428 59.6895 25.54 59.6857 25.5366 59.6823C25.5326 59.6785 25.5284 59.6751 25.5244 59.6713L23.6771 57.8312C22.458 56.6096 22.457 54.6264 23.675 53.41ZM67.1178 77.6378C66.2857 76.8047 64.9359 76.804 64.1031 77.6359L62.2065 79.5302C60.4043 81.3324 57.1388 81.1055 53.9809 80.8864C50.5515 80.648 47.0053 80.4021 44.7106 82.758L36.8585 90.6006L17.2229 70.9938L24.1718 64.0574C25.3203 64.7614 26.6456 65.1388 28.0323 65.1388C30.0134 65.1388 31.871 64.3709 33.2585 62.9808C34.6554 61.5897 35.4248 59.7331 35.4248 57.7527C35.4248 57.7343 35.4235 57.7161 35.4235 57.6976C35.442 57.6978 35.4604 57.6989 35.4788 57.6989C37.4571 57.6989 39.3133 56.9333 40.7027 55.5455C42.0996 54.1544 42.869 52.2976 42.869 50.3174C42.869 50.299 42.8677 50.2808 42.8677 50.2624C42.8863 50.2624 42.905 50.2636 42.9238 50.2636C44.9015 50.2636 46.7587 49.4988 48.1575 48.1058C49.6096 46.6514 50.3278 44.7366 50.314 42.8258C50.3331 42.826 50.3521 42.8271 50.3712 42.8271C52.3522 42.8269 54.2097 42.0591 55.5993 40.6669C56.9919 39.276 57.759 37.4201 57.759 35.4409C57.759 34.0568 57.3827 32.7336 56.681 31.5874L62.7715 25.4994C63.2253 25.0475 63.785 24.7638 64.3715 24.6468C64.435 24.64 64.4977 24.6298 64.5597 24.6175C65.5008 24.4878 66.4891 24.7782 67.2088 25.4949C68.4279 26.7161 68.4279 28.7029 67.2133 29.9196L65.3584 31.7669C65.3522 31.773 65.3457 31.7785 65.3395 31.7846L63.2031 33.9175C62.3699 34.7493 62.3691 36.0992 63.2012 36.9321C64.0335 37.7653 65.3831 37.7659 66.2159 36.934L68.0782 35.0743C68.0786 35.0738 68.079 35.0734 68.0794 35.073L68.361 34.7925C69.5834 33.5813 71.5638 33.5839 72.785 34.8033C73.3726 35.3884 73.6962 36.1722 73.6962 37.0105C73.6962 37.8485 73.3726 38.6323 72.7803 39.222L70.9148 41.0913C70.9146 41.0915 70.9144 41.0918 70.9142 41.0922L68.778 43.2197C67.9438 44.0505 67.941 45.4004 68.7718 46.2344C69.6027 47.0686 70.9523 47.0711 71.7865 46.2405L73.9325 44.1033C74.519 43.5156 75.305 43.1922 76.1457 43.1922C76.9867 43.1922 77.7729 43.5156 78.3637 44.1075C78.9513 44.6928 79.2747 45.4766 79.2747 46.3148C79.2747 47.1529 78.9513 47.9367 78.3603 48.5251L74.6412 52.2457C73.8088 53.0785 73.8091 54.4281 74.6416 55.2604C75.0579 55.6766 75.6032 55.8844 76.1487 55.8844C76.6944 55.8844 77.2401 55.6761 77.6562 55.2598L79.479 53.4364C79.4893 53.4265 79.5006 53.4178 79.5109 53.4074C80.0975 52.8198 80.8834 52.4964 81.7242 52.4964C82.5652 52.4964 83.3511 52.8198 83.9398 53.4095C85.1576 54.626 85.1565 56.6094 83.9398 57.8282L82.0866 59.6793C82.086 59.68 82.0851 59.6806 82.0845 59.6812C82.0838 59.6819 82.0832 59.6827 82.0826 59.6834L79.1411 62.6212C78.3082 63.4533 78.3074 64.8031 79.1392 65.6361C79.5556 66.0529 80.1017 66.2614 80.6476 66.2614C81.1927 66.2614 81.738 66.0535 82.1541 65.638L83.5929 64.2009L90.4886 71.0886L70.8547 90.6986L63.8199 83.6722C64.3104 83.3568 64.7796 82.986 65.2201 82.5455L67.1157 80.6523C67.9491 79.8206 67.9499 78.4708 67.1178 77.6378ZM102.907 80.2778L80.059 103.098C79.5245 103.632 78.809 103.926 78.0445 103.926C77.2799 103.926 76.5644 103.632 76.0297 103.098L72.2626 99.3357C71.7287 98.8027 71.4347 98.0894 71.4347 97.3272C71.4347 96.5651 71.7287 95.8518 72.2626 95.3186L95.1109 72.4979C95.6456 71.9639 96.3609 71.6699 97.1257 71.6699C97.8902 71.6699 98.6057 71.9639 99.1416 72.4992L102.908 76.2545C103.441 76.7877 103.735 77.5019 103.735 78.2661C103.735 79.0304 103.441 79.7448 102.907 80.2778Z" fill="white" stroke="#EC8562" stroke-width="2" mask="url(#path-2-inside-1_15_1748)"/>
  <path d="M28.1618 9.30956L28.1618 9.30956C28.7997 9.94614 28.8007 10.9792 28.164 11.6171C27.8452 11.9366 27.4279 12.0962 27.0091 12.0962C26.5912 12.0962 26.1751 11.9375 25.8565 11.6196L18.0885 3.8668L18.0884 3.86679C17.4506 3.23021 17.4496 2.19716 18.0862 1.55922L18.0862 1.55918C18.7228 0.921186 19.756 0.920322 20.3937 1.55693L20.3938 1.55697L28.1618 9.30956Z" fill="white" stroke="#EC8562"/>
  <path d="M89.5275 3.86816L89.5275 3.86817L81.7654 11.6209C81.7654 11.6209 81.7654 11.621 81.7653 11.621C81.4467 11.9391 81.0301 12.0981 80.6122 12.0981C80.1935 12.0981 79.7765 11.9388 79.4577 11.6197C78.8208 10.9821 78.8215 9.94888 79.459 9.31215L79.459 9.31214L87.2211 1.55935C87.8589 0.922359 88.892 0.923076 89.5287 1.56059L89.5288 1.56064C90.1657 2.19819 90.165 3.23143 89.5275 3.86816Z" fill="white" stroke="#EC8562"/>
  <path d="M13.4902 94.3619L13.4901 94.3619C13.8072 94.6736 14.2176 94.8285 14.6294 94.8285C15.0522 94.8285 15.474 94.6652 15.7945 94.3391L15.7946 94.3391C16.4253 93.6975 16.4153 92.6612 15.7718 92.0286L15.7717 92.0285C15.1295 91.397 14.0965 91.4056 13.4642 92.0484L13.4902 94.3619ZM13.4902 94.3619L13.4868 94.3586M13.4902 94.3619L13.4868 94.3586M13.4868 94.3586L13.4824 94.3544M13.4868 94.3586L13.4824 94.3544M13.4824 94.3544C12.8413 93.7226 12.833 92.6906 13.4641 92.0485L13.4824 94.3544Z" fill="white" stroke="#EC8562"/>
  <path d="M71.5982 70.9769L71.5982 70.9769L71.588 70.982C70.7852 71.3869 70.4651 72.3643 70.8718 73.1708L70.8718 73.1709C71.1572 73.7371 71.7322 74.0659 72.3325 74.0659C72.5803 74.0659 72.8319 74.0095 73.0694 73.89L71.5982 70.9769ZM71.5982 70.9769L71.5999 70.976M71.5982 70.9769L71.5999 70.976M71.5999 70.976C72.4042 70.5703 73.3856 70.8935 73.7915 71.6982L71.5999 70.976ZM73.7916 71.6983C74.1972 72.5028 73.874 73.4839 73.0696 73.8899L73.7916 71.6983Z" fill="white" stroke="#EC8562"/>
</svg>