<svg width="102" height="102" viewBox="0 0 102 102" fill="none" xmlns="http://www.w3.org/2000/svg">
<path d="M100.019 0.252444L100.019 0.252443C71.048 0.0260948 45.9543 15.5507 28.4421 38.924L28.3203 39.0866L28.1363 39.0006C20.7126 35.5336 11.7823 37.0421 5.90267 42.9217C5.22271 43.6019 5.22238 44.7052 5.90267 45.3857C5.90268 45.3857 5.90268 45.3857 5.90269 45.3857L21.9832 61.4663L22.0868 61.5698L22.0471 61.7108L19.0542 72.3455L18.8136 72.2778L19.0542 72.3455C18.8835 72.9521 19.0537 73.6037 19.4994 74.0494L27.9522 82.5024C28.4001 82.9503 29.0533 83.1174 29.656 82.9476L29.6561 82.9475L40.2906 79.9545L40.4316 79.9148L40.5351 80.0184L56.6157 96.0991C57.2958 96.7791 58.3994 96.7792 59.0797 96.0991C64.9607 90.2179 66.4688 81.2871 62.9988 73.8642L62.9128 73.6801L63.0754 73.5583C69.5223 68.7294 78.267 61.0681 85.7995 50.5926C86.3611 49.8115 86.1833 48.7229 85.4021 48.161C84.6211 47.5996 83.5323 47.7774 82.9705 48.5585C75.1507 59.4337 65.9658 67.1797 59.6383 71.7632C53.0847 76.5137 48.1409 78.9912 45.7322 80.061L45.5753 80.1307L45.4539 80.0093L35.1318 69.6872L34.955 69.5104L35.1318 69.3336L46.4014 58.064C47.0817 57.3837 47.0817 56.2805 46.4014 55.6C46.4014 55.6 46.4014 55.6 46.4014 55.6M100.019 0.252444L43.7608 55.4232C44.5388 54.6455 45.8004 54.6455 46.5782 55.4232L46.4014 55.6M100.019 0.252444C100.972 0.259238 101.742 1.02979 101.749 1.98228C101.827 12.9529 99.6879 23.979 94.9291 34.7366C94.5404 35.6155 93.513 36.0147 92.6311 35.6251C91.7512 35.2358 91.3535 34.2069 91.7427 33.327C93.1671 30.1073 94.3667 26.7974 95.3285 23.4596L95.4066 23.1884L95.128 23.1436C91.0688 22.4901 87.3125 20.5856 84.3637 17.6386C81.4151 14.6882 79.5105 10.9308 78.8576 6.87009L78.8128 6.59149L78.5417 6.66953C48.4559 15.3275 28.3001 41.951 21.9408 56.2692L21.8711 56.4261L21.9925 56.5475C28.2014 62.7553 28.3055 62.8596 28.5712 63.1257C28.7755 63.3302 29.0751 63.6303 32.3144 66.8696L32.4912 67.0464L32.668 66.8696L43.9376 55.6M100.019 0.252444L43.9376 55.6M46.4014 55.6C45.7213 54.9199 44.6179 54.9199 43.9376 55.6C43.9376 55.6 43.9376 55.6 43.9376 55.6M46.4014 55.6L43.9376 55.6M60.149 76.0443L60.031 75.7569L59.7755 75.9336C55.8612 78.6399 51.9 80.9881 48.526 82.6103L48.2082 82.763L48.4575 83.0124L57.583 92.138L57.7834 92.3384L57.9572 92.1145C61.5062 87.5426 62.3413 81.3863 60.149 76.0443ZM25.2134 64.696L24.9116 64.3942L24.7959 64.8051L22.7245 72.1656L22.6848 72.3066L22.7883 72.4101L29.5909 79.2129L29.6944 79.3164L29.8354 79.2767L37.1961 77.2052L37.607 77.0896L37.3052 76.7878C36.3078 75.7906 30.3121 69.7948 27.1014 66.584L25.2134 64.696ZM18.989 53.5441L19.2384 53.7934L19.3911 53.4756C21.0143 50.099 23.3619 46.1369 26.0664 42.2243L26.2431 41.9687L25.9556 41.8508C20.6132 39.6607 14.4576 40.4962 9.88688 44.0444L9.66297 44.2182L9.86341 44.4186L18.989 53.5441ZM96.0634 19.7629L96.2896 19.7938L96.3409 19.5714C97.5114 14.4975 98.1538 9.27646 98.253 4.00289L98.2578 3.74336L97.9983 3.74823C92.7247 3.84717 87.5043 4.48956 82.4298 5.66032L82.2074 5.71164L82.2383 5.9378C82.7151 9.42319 84.3108 12.6565 86.8273 15.1744L86.8274 15.1745C89.3449 17.6906 92.5782 19.2861 96.0634 19.7629Z" fill="white" stroke="#EC8562" stroke-width="0.5"/>
<path d="M70.488 45.9526C66.5038 49.937 60.0326 49.9372 56.0482 45.9526C56.0482 45.9526 56.0482 45.9526 56.0482 45.9526M70.488 45.9526L56.2249 31.6896C52.3378 35.5761 52.3383 41.8896 56.2249 45.7758M70.488 45.9526C70.488 45.9526 70.488 45.9526 70.488 45.9526C74.4728 41.9684 74.4722 35.4966 70.4882 31.5128C66.5034 27.5282 60.0324 27.5284 56.0482 31.5128C56.0482 31.5128 56.0482 31.5128 56.0482 31.5128M70.488 45.9526L70.3112 45.7758C66.4246 49.6626 60.1117 49.6628 56.2249 45.7758M56.0482 45.9526L56.2249 45.7758M56.0482 45.9526C52.064 41.9688 52.0633 35.497 56.0482 31.5128M56.0482 45.9526V31.5128M56.2249 45.7758L56.0482 31.5128M53.5841 29.0488L53.5841 29.0488C58.9308 23.7021 67.6059 23.7029 72.9518 29.0488L73.1225 28.8781L72.9518 29.0488C78.2987 34.3954 78.2981 43.0703 72.9518 48.4164L73.1286 48.5932L72.9518 48.4164C67.6052 53.7633 58.93 53.7623 53.5841 48.4164L53.4074 48.5932L53.5841 48.4164C48.2373 43.0698 48.2379 34.3948 53.5841 29.0488Z" fill="white" stroke="#EC8562" stroke-width="0.5"/>
<path d="M90.6504 41.8301C90.6504 42.7923 89.8704 43.5723 88.9082 43.5723C87.946 43.5723 87.166 42.7923 87.166 41.8301C87.166 40.8679 87.946 40.0879 88.9082 40.0879C89.8704 40.0879 90.6504 40.8679 90.6504 41.8301Z" fill="white" stroke="#EC8562" stroke-width="0.5"/>
<path d="M19.4996 88.4907L19.4995 88.4908C19.2022 88.7879 18.5946 89.2109 17.7863 89.7144C16.9701 90.2229 15.9271 90.8268 14.7402 91.4865C12.3661 92.8063 9.40788 94.3543 6.51933 95.8179L5.83819 96.163L6.18334 95.4819C7.64699 92.5935 9.19502 89.6353 10.5147 87.2612C11.1744 86.0744 11.7782 85.0315 12.2866 84.2154C12.79 83.4072 13.2129 82.7997 13.5098 82.5025L13.5099 82.5025C15.1652 80.847 17.843 80.8463 19.499 82.5025L19.4996 88.4907ZM19.4996 88.4907C21.1503 86.8396 21.1501 84.1536 19.499 82.5025L19.4996 88.4907ZM2.75235 101.577L2.75229 101.577C2.08839 101.899 1.28784 101.768 0.760305 101.241C0.235562 100.716 0.100884 99.9167 0.424583 99.2491L0.199641 99.14L0.424586 99.2491C1.10043 97.8551 3.15478 93.6506 5.3453 89.4896C6.44068 87.4088 7.56887 85.3413 8.57502 83.6424C9.5868 81.934 10.4598 80.6254 11.0455 80.0392C14.0644 77.0199 18.9464 77.0218 21.963 80.0386L21.963 80.0387C24.9726 83.0481 24.9726 87.9458 21.963 90.9554L21.9628 90.9556L21.9626 90.9558L21.9625 90.9559C21.3763 91.5416 20.0676 92.4146 18.3591 93.4264C16.6602 94.4326 14.5926 95.5608 12.5119 96.6561C8.35082 98.8467 4.14634 100.901 2.75235 101.577Z" fill="white" stroke="#EC8562" stroke-width="0.5"/>
</svg>
