<svg width="174" height="174" viewBox="0 0 174 174" fill="none" xmlns="http://www.w3.org/2000/svg">
<circle cx="87" cy="87" r="87" fill="#D9D9D9"/>
<path d="M151.292 93.9276C151.436 95.644 144.61 96.4039 128.979 99.0506C112.994 101.776 108.749 100.57 108.67 99.4437C108.565 98.0679 107.923 89.0535 106.377 83.3802C106.299 83.0657 106.207 82.7644 106.115 82.4761C105.958 81.952 105.788 81.4803 105.617 81.048C105.46 80.668 105.29 80.3273 105.119 80.026C104.857 79.5674 104.569 79.2136 104.255 78.9909C104.058 78.8599 103.848 78.7681 103.639 78.755C103.429 78.7419 103.22 78.8206 103.036 79.0171C102.787 79.2398 102.564 79.6198 102.342 80.1308C102.198 80.4846 102.053 80.9038 101.922 81.3624C101.804 81.7555 101.687 82.1879 101.582 82.6464C101.503 82.9871 101.438 83.3409 101.359 83.7208C100.219 89.5121 99.6819 98.4741 99.053 99.7188C98.293 101.212 96.9959 99.5878 80.0284 98.5265C63.2967 97.4914 56.7455 93.4035 57.0075 91.556C58.7108 80.1701 59.7066 57.4375 64.2007 33.5388H64.2138L91.5453 32.2679L94.2051 32.1369L103.796 31.6914L112.601 32.0976L115.247 32.2286L143.365 33.5388H143.378C148.043 48.5148 149.143 68.2994 151.279 93.9276H151.292Z" fill="#ACAFB3"/>
<path d="M104.465 74.863L104.295 78.7806C104.295 78.8592 104.282 78.9247 104.255 78.9902C104.059 78.8592 103.849 78.7675 103.639 78.7544C103.43 78.7413 103.22 78.8199 103.037 79.0164C102.997 78.9247 102.984 78.833 102.984 78.7282L103.155 74.8106C103.168 74.4437 103.443 74.1816 103.836 74.1816C104.203 74.1947 104.478 74.4961 104.465 74.863Z" fill="#CACFD5"/>
<path d="M102.343 80.1287C102.199 80.4824 102.055 80.9017 101.924 81.3603C101.806 81.7533 101.688 82.1857 101.583 82.6443C100.797 82.5657 98.9892 82.1333 97.0501 80.0762C93.4076 76.1979 89.6079 66.7905 90.6692 44.1103C90.6954 43.6255 90.7216 43.1538 90.7478 42.669C90.8789 40.1534 91.0754 37.4805 91.3374 34.6504C92.2415 34.6635 93.1194 34.6897 93.9841 34.7028V34.7945C93.709 37.5722 93.5124 40.1796 93.3814 42.6297C93.329 43.56 93.2897 44.4641 93.2504 45.3419C92.3594 67.118 96.1853 75.176 98.7927 78.0978C100.47 79.9976 101.859 80.05 101.924 80.05C102.068 80.05 102.212 80.0762 102.343 80.1287Z" fill="#CACFD5"/>
<path d="M109.786 80.0792C108.384 81.5728 107.047 82.2018 106.117 82.4769C105.96 81.9528 105.789 81.4811 105.619 81.0487C105.462 80.6688 105.291 80.3281 105.121 80.0268C105.567 79.9481 106.72 79.5944 108.043 78.1007C110.637 75.1789 114.463 67.1603 113.598 45.5021C113.559 44.6111 113.507 43.6808 113.454 42.7375C113.323 40.2742 113.127 37.6407 112.865 34.8237C113.756 34.8237 114.647 34.8236 115.511 34.8105C115.76 37.5489 115.957 40.1301 116.075 42.5671C116.075 42.5802 116.088 42.5802 116.088 42.5933C116.114 43.1436 116.14 43.6808 116.166 44.2049C117.215 66.8196 113.415 76.214 109.786 80.0792Z" fill="#CACFD5"/>
<path d="M104.161 47.0728C97.5841 47.0728 92.317 44.793 91.9894 44.6489C91.3605 44.3737 91.0591 43.6007 91.3212 42.9325C91.5832 42.2643 92.3039 41.9498 92.9328 42.225C93.0507 42.2774 104.306 47.1252 113.897 42.2512C114.512 41.9367 115.246 42.2119 115.547 42.867C115.836 43.5221 115.587 44.3082 114.971 44.6096C111.355 46.4439 107.581 47.0597 104.175 47.0597L104.161 47.0728Z" fill="#CACFD5"/>
<path d="M143.392 34.1539C143.392 34.1539 131.561 34.6911 115.511 34.809C114.646 34.8221 113.755 34.8221 112.864 34.8221C108.815 34.8483 104.531 34.8221 100.128 34.7828C98.3465 34.7566 96.2501 34.7304 93.9834 34.7042C93.1186 34.6911 92.2408 34.6649 91.3367 34.6518C79.2825 34.4552 64.2148 34.1539 64.2148 34.1539C64.2148 34.1539 64.2279 33.918 64.2279 33.5381C64.3066 31.8086 64.5031 27 64.7258 27C65.8657 27.0131 78.7716 27.2489 92.018 27.2883C92.8959 27.2883 93.7868 27.2883 94.6647 27.2883C97.39 27.2883 100.089 27.2883 102.683 27.262C105.631 27.2358 108.868 27.2227 112.169 27.2227C113.047 27.2096 113.925 27.2096 114.803 27.2096C128.639 27.1703 142.894 27.2227 143.039 27.2227C143.196 27.2227 143.327 31.8217 143.379 33.525C143.392 33.8918 143.392 34.1146 143.392 34.1408V34.1539Z" fill="#222222"/>
<path d="M131.292 112.928C131.436 114.644 124.61 115.404 108.979 118.051C92.9939 120.776 88.7487 119.57 88.6701 118.444C88.5653 117.068 87.9233 108.054 86.3772 102.38C86.2986 102.066 86.2069 101.764 86.1151 101.476C85.9579 100.952 85.7876 100.48 85.6173 100.048C85.46 99.668 85.2897 99.3273 85.1194 99.026C84.8573 98.5674 84.5691 98.2136 84.2546 97.9909C84.0581 97.8599 83.8484 97.7681 83.6388 97.755C83.4292 97.7419 83.2195 97.8206 83.0361 98.0171C82.7872 98.2398 82.5644 98.6198 82.3417 99.1308C82.1975 99.4846 82.0534 99.9038 81.9224 100.362C81.8045 100.755 81.6866 101.188 81.5817 101.646C81.5031 101.987 81.4376 102.341 81.359 102.721C80.2191 108.512 79.6819 117.474 79.053 118.719C78.293 120.212 76.9959 118.588 60.0284 117.526C43.2967 116.491 36.7455 112.403 37.0075 110.556C38.7108 99.1701 39.7066 76.4375 44.2007 52.5388H44.2138L71.5453 51.2679L74.2051 51.1369L83.796 50.6914L92.6008 51.0976L95.2475 51.2286L123.365 52.5388H123.378C128.043 67.5148 129.143 87.2994 131.279 112.928H131.292Z" fill="#000F1E"/>
<path d="M84.4649 93.863L84.2946 97.7806C84.2946 97.8592 84.2815 97.9247 84.2553 97.9902C84.0588 97.8592 83.8491 97.7675 83.6395 97.7544C83.4299 97.7413 83.2202 97.8199 83.0368 98.0164C82.9975 97.9247 82.9844 97.833 82.9844 97.7282L83.1547 93.8106C83.1678 93.4437 83.443 93.1816 83.836 93.1816C84.2029 93.1947 84.478 93.4961 84.4649 93.863Z" fill="#4F555D"/>
<path d="M82.3434 99.1287C82.1993 99.4824 82.0552 99.9017 81.9241 100.36C81.8062 100.753 81.6883 101.186 81.5835 101.644C80.7973 101.566 78.9892 101.133 77.0501 99.0762C73.4076 95.1979 69.6079 85.7905 70.6692 63.1103C70.6954 62.6255 70.7216 62.1538 70.7478 61.669C70.8789 59.1534 71.0754 56.4805 71.3374 53.6504C72.2415 53.6635 73.1194 53.6897 73.9841 53.7028V53.7945C73.709 56.5722 73.5124 59.1796 73.3814 61.6297C73.329 62.56 73.2897 63.4641 73.2504 64.3419C72.3594 86.118 76.1853 94.176 78.7927 97.0978C80.4698 98.9976 81.8586 99.05 81.9241 99.05C82.0683 99.05 82.2124 99.0762 82.3434 99.1287Z" fill="#4F555D"/>
<path d="M89.7855 99.0792C88.3836 100.573 87.0471 101.202 86.1169 101.477C85.9596 100.953 85.7893 100.481 85.619 100.049C85.4618 99.6688 85.2914 99.3281 85.1211 99.0268C85.5666 98.9481 86.7196 98.5944 88.0429 97.1007C90.6372 94.1789 94.4631 86.1603 93.5983 64.5021C93.559 63.6111 93.5066 62.6808 93.4542 61.7375C93.3232 59.2742 93.1266 56.6407 92.8646 53.8237C93.7555 53.8237 94.6465 53.8236 95.5113 53.8105C95.7602 56.5489 95.9567 59.1301 96.0747 61.5671C96.0747 61.5802 96.0878 61.5802 96.0878 61.5933C96.114 62.1436 96.1402 62.6808 96.1664 63.2049C97.2146 85.8196 93.4149 95.214 89.7855 99.0792Z" fill="#4F555D"/>
<path d="M84.1615 66.0728C77.5841 66.0728 72.317 63.793 71.9894 63.6489C71.3605 63.3737 71.0591 62.6007 71.3212 61.9325C71.5832 61.2643 72.3039 60.9498 72.9328 61.225C73.0507 61.2774 84.3056 66.1252 93.8965 61.2512C94.5123 60.9367 95.2461 61.2119 95.5474 61.867C95.8357 62.5221 95.5867 63.3082 94.9709 63.6096C91.3547 65.4439 87.5812 66.0597 84.1746 66.0597L84.1615 66.0728Z" fill="#4F555D"/>
<path d="M123.392 53.1539C123.392 53.1539 111.561 53.6911 95.5105 53.809C94.6458 53.8221 93.7548 53.8221 92.8639 53.8221C88.8152 53.8483 84.5308 53.8221 80.1284 53.7828C78.3465 53.7566 76.2501 53.7304 73.9834 53.7042C73.1186 53.6911 72.2408 53.6649 71.3367 53.6518C59.2825 53.4552 44.2148 53.1539 44.2148 53.1539C44.2148 53.1539 44.2279 52.918 44.2279 52.5381C44.3066 50.8086 44.5031 46 44.7258 46C45.8657 46.0131 58.7716 46.2489 72.018 46.2883C72.8959 46.2883 73.7868 46.2883 74.6647 46.2883C77.39 46.2883 80.0891 46.2883 82.6833 46.262C85.6314 46.2358 88.8677 46.2227 92.1694 46.2227C93.0473 46.2096 93.9252 46.2096 94.803 46.2096C108.639 46.1703 122.894 46.2227 123.039 46.2227C123.196 46.2227 123.327 50.8217 123.379 52.525C123.392 52.8918 123.392 53.1146 123.392 53.1408V53.1539Z" fill="#222222"/>
<path d="M114.292 132.928C114.436 134.644 107.61 135.404 91.9787 138.051C75.9939 140.776 71.7487 139.57 71.6701 138.444C71.5653 137.068 70.9233 128.054 69.3772 122.38C69.2986 122.066 69.2069 121.764 69.1151 121.476C68.9579 120.952 68.7876 120.48 68.6173 120.048C68.46 119.668 68.2897 119.327 68.1194 119.026C67.8573 118.567 67.5691 118.214 67.2546 117.991C67.0581 117.86 66.8484 117.768 66.6388 117.755C66.4292 117.742 66.2195 117.821 66.0361 118.017C65.7872 118.24 65.5644 118.62 65.3417 119.131C65.1975 119.485 65.0534 119.904 64.9224 120.362C64.8045 120.755 64.6866 121.188 64.5817 121.646C64.5031 121.987 64.4376 122.341 64.359 122.721C63.2191 128.512 62.6819 137.474 62.053 138.719C61.293 140.212 59.9959 138.588 43.0284 137.526C26.2967 136.491 19.7455 132.403 20.0075 130.556C21.7108 119.17 22.7066 96.4375 27.2007 72.5388H27.2138L54.5453 71.2679L57.2051 71.1369L66.796 70.6914L75.6008 71.0976L78.2475 71.2286L106.365 72.5388H106.378C111.043 87.5148 112.143 107.299 114.279 132.928H114.292Z" fill="#302950"/>
<path d="M67.4649 113.863L67.2946 117.781C67.2946 117.859 67.2815 117.925 67.2553 117.99C67.0588 117.859 66.8491 117.767 66.6395 117.754C66.4299 117.741 66.2202 117.82 66.0368 118.016C65.9975 117.925 65.9844 117.833 65.9844 117.728L66.1547 113.811C66.1678 113.444 66.443 113.182 66.836 113.182C67.2029 113.195 67.478 113.496 67.4649 113.863Z" fill="#44486C"/>
<path d="M65.3434 119.129C65.1993 119.482 65.0552 119.902 64.9241 120.36C64.8062 120.753 64.6883 121.186 64.5835 121.644C63.7973 121.566 61.9892 121.133 60.0501 119.076C56.4076 115.198 52.6079 105.79 53.6692 83.1103C53.6954 82.6255 53.7216 82.1538 53.7478 81.669C53.8789 79.1534 54.0754 76.4805 54.3374 73.6504C55.2415 73.6635 56.1194 73.6897 56.9841 73.7028V73.7945C56.709 76.5722 56.5124 79.1796 56.3814 81.6297C56.329 82.56 56.2897 83.4641 56.2504 84.3419C55.3594 106.118 59.1853 114.176 61.7927 117.098C63.4698 118.998 64.8586 119.05 64.9241 119.05C65.0683 119.05 65.2124 119.076 65.3434 119.129Z" fill="#44486C"/>
<path d="M72.7855 119.079C71.3836 120.573 70.0471 121.202 69.1169 121.477C68.9596 120.953 68.7893 120.481 68.619 120.049C68.4618 119.669 68.2914 119.328 68.1211 119.027C68.5666 118.948 69.7196 118.594 71.0429 117.101C73.6372 114.179 77.4631 106.16 76.5983 84.5021C76.559 83.6111 76.5066 82.6808 76.4542 81.7375C76.3232 79.2742 76.1266 76.6407 75.8646 73.8237C76.7555 73.8237 77.6465 73.8236 78.5113 73.8105C78.7602 76.5489 78.9567 79.1301 79.0747 81.5671C79.0747 81.5802 79.0878 81.5802 79.0878 81.5933C79.114 82.1436 79.1402 82.6808 79.1664 83.2049C80.2146 105.82 76.4149 115.214 72.7855 119.079Z" fill="#44486C"/>
<path d="M67.1615 86.0728C60.5841 86.0728 55.317 83.793 54.9894 83.6489C54.3605 83.3737 54.0591 82.6007 54.3212 81.9325C54.5832 81.2643 55.3039 80.9498 55.9328 81.225C56.0507 81.2774 67.3056 86.1252 76.8965 81.2512C77.5123 80.9367 78.2461 81.2119 78.5474 81.867C78.8357 82.5221 78.5867 83.3082 77.9709 83.6096C74.3547 85.4439 70.5812 86.0597 67.1746 86.0597L67.1615 86.0728Z" fill="#44486C"/>
<path d="M106.392 73.1539C106.392 73.1539 94.5609 73.6911 78.5105 73.809C77.6458 73.8221 76.7548 73.8221 75.8639 73.8221C71.8152 73.8483 67.5308 73.8221 63.1284 73.7828C61.3465 73.7566 59.2501 73.7304 56.9834 73.7042C56.1186 73.6911 55.2408 73.6649 54.3367 73.6518C42.2825 73.4552 27.2148 73.1539 27.2148 73.1539C27.2148 73.1539 27.2279 72.918 27.2279 72.5381C27.3066 70.8086 27.5031 66 27.7258 66C28.8657 66.0131 41.7716 66.2489 55.018 66.2883C55.8959 66.2883 56.7868 66.2883 57.6647 66.2883C60.39 66.2883 63.0891 66.2883 65.6833 66.262C68.6314 66.2358 71.8677 66.2227 75.1694 66.2227C76.0473 66.2096 76.9252 66.2096 77.803 66.2096C91.6391 66.1703 105.894 66.2227 106.039 66.2227C106.196 66.2227 106.327 70.8217 106.379 72.525C106.392 72.8918 106.392 73.1146 106.392 73.1408V73.1539Z" fill="#222222"/>
</svg>
