<svg width="105" height="105" viewBox="0 0 105 105" fill="none" xmlns="http://www.w3.org/2000/svg">
<path d="M89.1825 41.8209L89.1563 41.9521L89.1789 41.9747C89.1618 42.0277 89.1359 42.0907 89.0965 42.1841L89.0948 42.1883C89.0495 42.3017 88.997 42.4063 88.9378 42.5026L88.9363 42.505C88.9219 42.5291 88.9083 42.5532 88.8968 42.5739L88.896 42.5753C88.8836 42.5974 88.8733 42.6157 88.8629 42.633C88.8419 42.668 88.8269 42.6878 88.8145 42.7002L88.8082 42.7065L88.8023 42.7133L88.6932 42.8392L88.6321 42.9096V42.9239L53.3045 82.2867C53.3039 82.2869 53.3032 82.2872 53.3025 82.2876L53.3017 82.288C53.2799 82.2982 53.2325 82.3205 53.1854 82.3661C53.0858 82.4577 52.9868 82.5339 52.8875 82.5869L52.8648 82.599L52.8451 82.6154C52.828 82.6297 52.8016 82.6428 52.7464 82.6701C52.7363 82.6751 52.7253 82.6805 52.7132 82.6865C52.5834 82.7331 52.4517 82.7611 52.3021 82.776C52.2818 82.7767 52.2637 82.7788 52.2494 82.7808C52.2317 82.7833 52.2151 82.7864 52.2041 82.7885C52.2009 82.7891 52.1982 82.7896 52.1958 82.7901C52.1928 82.7892 52.1892 82.7881 52.1849 82.7868C52.1728 82.783 52.151 82.7762 52.1279 82.7708C52.1045 82.7653 52.0708 82.7589 52.0316 82.7589C51.9225 82.7589 51.8134 82.7357 51.6925 82.6941C51.6717 82.6838 51.6527 82.6746 51.6349 82.6659C51.5781 82.6382 51.5331 82.6163 51.4805 82.5847L51.4689 82.5778L51.4566 82.5721C51.3762 82.535 51.2944 82.4787 51.2325 82.4184C51.2051 82.3879 51.1767 82.367 51.1572 82.354C51.1387 82.3416 51.1182 82.3299 51.1075 82.3238L51.1033 82.3214C51.1009 82.32 51.0989 82.3188 51.0972 82.3178L51.0931 82.3132L15.5566 42.7154C15.4739 42.6114 15.4128 42.5168 15.3584 42.4051C15.3518 42.3853 15.3433 42.3677 15.3341 42.3524C15.3319 42.3487 15.3297 42.3452 15.3275 42.3419C15.2576 42.1928 15.2284 42.039 15.2129 41.8673V41.7357C15.2129 41.5939 15.2278 41.4481 15.2662 41.3229C15.2783 41.2907 15.2849 41.2644 15.2889 41.2484L15.2893 41.2466C15.2934 41.2304 15.2942 41.2281 15.2957 41.2243C15.3109 41.1862 15.319 41.1513 15.3228 41.1348C15.3232 41.1334 15.3235 41.1321 15.3237 41.131C15.3241 41.1293 15.3245 41.1279 15.3248 41.1267C15.4052 40.9752 15.4924 40.8522 15.6028 40.727C15.603 40.7267 15.6033 40.7264 15.6035 40.7261L28.9872 25.8238C28.9873 25.8236 28.9874 25.8235 28.9875 25.8234C29.26 25.5224 29.6462 25.3438 30.069 25.3438H74.3551C74.7624 25.3438 75.1649 25.5233 75.4365 25.8233C75.4367 25.8234 75.4368 25.8236 75.437 25.8238L88.8388 40.7446L88.8462 40.7528L88.8542 40.7603C88.9411 40.8414 89.0098 40.9406 89.0635 41.0574C89.0641 41.0621 89.0648 41.0669 89.0657 41.0718C89.0686 41.0894 89.0752 41.1225 89.0929 41.1597C89.0981 41.181 89.1033 41.2033 89.1088 41.2264L89.109 41.2276C89.1173 41.2626 89.126 41.2995 89.1347 41.3347L89.1357 41.3385C89.1652 41.4492 89.1776 41.5277 89.1776 41.6266C89.1776 41.6641 89.1808 41.7091 89.1828 41.7384C89.1834 41.748 89.184 41.756 89.1843 41.7614C89.186 41.7931 89.1849 41.8089 89.1825 41.8209ZM66.6328 40.0759L66.6991 40.2233H66.8608H83.9223H83.9307H84.4917L84.1166 39.8061L73.7857 28.3171L73.7112 28.2342H73.5998H61.6911H61.3045L61.4632 28.5868L66.6328 40.0759ZM41.0125 43.1389H40.6625L40.7761 43.47L51.963 76.0908L52.1998 76.7815L52.436 76.0906L63.5894 43.4698L63.7025 43.1389H63.3528H41.0125ZM41.4344 40.2233H63.101H63.4877L63.329 39.8707L58.1594 28.3816L58.093 28.2342H57.9314H46.4424H46.2807L46.2144 28.3816L41.0447 39.8707L41.2643 39.9695V39.9733V40.2233H41.2727H41.4344ZM42.9442 28.57L43.1028 28.2174H42.7162H31.3937H30.8327H30.8243V28.4599L30.6468 28.3003L20.3159 39.7893L19.9408 40.2065H20.5018H37.5465H37.7082L37.7745 40.0591L42.9442 28.57ZM37.6404 43.3078L37.5824 43.1389H37.4039H20.4766H19.9163L20.2906 43.5559L47.683 74.0787L48.1055 73.8306L37.6404 43.3078ZM56.2934 73.8139L56.7159 74.0619L84.1084 43.5391L84.4826 43.1221H83.9223H66.9783H66.7996L66.7418 43.2912L56.2934 73.8139Z" fill="white" stroke="#EC8562" stroke-width="0.5"/>
<path d="M52.2013 10.5844C50.9966 10.5844 50.0176 9.60537 50.0176 8.40068V2.43376C50.0176 1.22907 50.9966 0.25 52.2013 0.25C53.406 0.25 54.3851 1.22907 54.3851 2.43376V8.40068C54.3851 9.60537 53.406 10.5844 52.2013 10.5844Z" fill="white" stroke="#EC8562" stroke-width="0.5"/>
<path d="M30.1054 16.4345C29.4015 16.3726 28.7579 15.9723 28.4071 15.3601L28.4066 15.3593L25.4201 10.1917C25.4199 10.1914 25.4197 10.191 25.4196 10.1907C24.8332 9.15198 25.1949 7.81806 26.2265 7.21564L26.2265 7.21564L26.2276 7.21499C26.5594 7.01896 26.9352 6.91406 27.3173 6.91406C28.084 6.91406 28.8074 7.32796 29.1993 7.99817C29.1994 7.99833 29.1995 7.9985 29.1996 7.99867L32.186 13.1662C32.7725 14.2052 32.4105 15.5395 31.3867 16.1417L31.3867 16.1417L31.3841 16.1432C31.0656 16.3358 30.6914 16.4345 30.2966 16.4345H30.1054Z" fill="white" stroke="#EC8562" stroke-width="0.5"/>
<path d="M14.2496 32.4894H14.0673C13.7452 32.4609 13.437 32.3606 13.1599 32.1968L13.16 32.1968L13.1579 32.1956L8.00577 29.2168C8.00566 29.2167 8.00556 29.2167 8.00545 29.2166C6.95796 28.606 6.60276 27.2962 7.19229 26.2305L7.22353 26.174V26.1642C7.63063 25.5327 8.3358 25.1426 9.0716 25.1426C9.46271 25.1426 9.84474 25.2477 10.1816 25.4573L10.1815 25.4574L10.1886 25.4615L15.3331 28.4324L15.3331 28.4324L15.3359 28.434C15.8312 28.7117 16.2001 29.1774 16.3587 29.7433C16.5163 30.3141 16.4345 30.8999 16.1393 31.4147C15.7488 32.0902 15.044 32.4894 14.2496 32.4894Z" fill="white" stroke="#EC8562" stroke-width="0.5"/>
<path d="M2.43376 54.3851C1.22907 54.3851 0.25 53.406 0.25 52.2013C0.25 50.9966 1.22907 50.0176 2.43376 50.0176H8.40068C9.60537 50.0176 10.5844 50.9966 10.5844 52.2013C10.5844 53.406 9.60537 54.3851 8.40068 54.3851H2.43376Z" fill="white" stroke="#EC8562" stroke-width="0.5"/>
<path d="M10.185 78.9746C9.92303 79.1305 9.61767 79.2299 9.29546 79.2583H9.10438C8.32734 79.2583 7.59718 78.8428 7.21482 78.1755L7.21484 78.1755L7.21314 78.1726C6.91992 77.6764 6.83724 77.091 6.98759 76.5267C7.13883 75.9676 7.49278 75.4943 7.99614 75.2011C7.99625 75.2011 7.99636 75.201 7.99648 75.2009L13.1654 72.2137C13.1654 72.2137 13.1654 72.2137 13.1655 72.2137C13.5043 72.0179 13.8806 71.9199 14.2656 71.9199C15.0406 71.9199 15.7634 72.3337 16.1551 73.0026C16.7418 74.0505 16.3789 75.3839 15.3565 75.9858C15.3563 75.986 15.356 75.9861 15.3558 75.9863L10.1878 78.973L10.1878 78.9729L10.185 78.9746Z" fill="white" stroke="#EC8562" stroke-width="0.5"/>
<path d="M26.2454 97.203L26.2454 97.2029L26.2394 97.1994C25.7335 96.9125 25.3659 96.4461 25.216 95.8914L25.2157 95.8901C25.0579 95.3191 25.1395 94.7331 25.4348 94.2182C25.4348 94.2181 25.4349 94.218 25.4349 94.2179L28.4138 89.0573L28.4139 89.0573L28.4159 89.0537C28.7907 88.3789 29.5121 87.957 30.2954 87.957C30.6808 87.957 31.0562 88.0552 31.3851 88.2496L31.385 88.2497L31.3914 88.2532C31.8929 88.5301 32.2611 89.0022 32.4119 89.575L32.4119 89.575L32.4123 89.5766C32.5626 90.1327 32.4883 90.7197 32.2012 91.2343L29.2145 96.4106C28.8233 97.0878 28.1174 97.4942 27.3245 97.4942C26.9386 97.4942 26.5643 97.3958 26.2454 97.203Z" fill="white" stroke="#EC8562" stroke-width="0.5"/>
<path d="M52.2013 104.151C50.9966 104.151 50.0176 103.172 50.0176 101.967V96.0002C50.0176 94.7955 50.9966 93.8164 52.2013 93.8164C53.406 93.8164 54.3851 94.7955 54.3851 96.0002V101.967C54.3851 103.172 53.406 104.151 52.2013 104.151Z" fill="white" stroke="#EC8562" stroke-width="0.5"/>
<path d="M75.202 96.3784L75.2015 96.3776L72.2151 91.2101C72.2149 91.2097 72.2147 91.2094 72.2145 91.2091C71.6286 90.1711 71.9893 88.8384 73.0191 88.2354C73.3605 88.0462 73.7292 87.9492 74.1039 87.9492C74.8804 87.9492 75.6116 88.3644 76.0027 89.0335C76.0027 89.0336 76.0028 89.0337 76.0029 89.0338L78.9894 94.1847C79.5757 95.2235 79.2139 96.5574 78.1906 97.1597C77.8674 97.3475 77.4913 97.4528 77.0999 97.4528H76.9964L76.9903 97.4589C76.2516 97.4246 75.5677 97.0166 75.202 96.3784Z" fill="white" stroke="#EC8562" stroke-width="0.5"/>
<path d="M94.2144 78.9591L94.2144 78.9591L94.2124 78.9579L89.0595 75.9787L89.0595 75.9787L89.0566 75.977C88.5612 75.6993 88.1923 75.2334 88.0338 74.6674C87.8765 74.1057 87.9577 73.5199 88.2533 73.0045L88.2533 73.0045L88.2545 73.0024C88.6386 72.317 89.3529 71.8965 90.1345 71.8965C90.5199 71.8965 90.8953 71.9947 91.2242 72.189L91.2242 72.189L91.2263 72.1902L96.3952 75.1774C96.3953 75.1775 96.3954 75.1776 96.3956 75.1777C97.4424 75.788 97.7977 77.0966 97.2097 78.1619C96.8093 78.8554 96.1036 79.2601 95.3125 79.2601C94.9216 79.2601 94.5458 79.1549 94.2144 78.9591Z" fill="white" stroke="#EC8562" stroke-width="0.5"/>
<path d="M96.0002 54.3851C94.7955 54.3851 93.8164 53.406 93.8164 52.2013C93.8164 50.9966 94.7955 50.0176 96.0002 50.0176H101.967C103.172 50.0176 104.151 50.9966 104.151 52.2013C104.151 53.406 103.172 54.3851 101.967 54.3851H96.0002Z" fill="white" stroke="#EC8562" stroke-width="0.5"/>
<path d="M91.209 32.1858L91.209 32.1858L91.2063 32.1875C90.893 32.374 90.5177 32.4796 90.1257 32.4796C89.3524 32.4796 88.6288 32.0589 88.2362 31.3803C87.6499 30.3416 88.0116 29.0077 89.0347 28.4053C89.035 28.4052 89.0353 28.405 89.0355 28.4049L94.2019 25.4191C94.2022 25.4189 94.2024 25.4188 94.2027 25.4186C94.5345 25.2303 94.9029 25.1328 95.2785 25.1328C96.0544 25.1328 96.7851 25.5474 97.1764 26.2155C97.7631 27.2634 97.4001 28.5968 96.3778 29.1987C96.3776 29.1989 96.3773 29.199 96.377 29.1992L91.209 32.1858Z" fill="white" stroke="#EC8562" stroke-width="0.5"/>
<path d="M73.0088 16.151L73.0088 16.1509L73.0017 16.1469C72.5075 15.8699 72.1458 15.4046 71.987 14.8448C71.8291 14.2885 71.9048 13.6795 72.1967 13.1856L72.1967 13.1856L72.198 13.1834L75.1772 8.02213L75.1772 8.02215L75.1792 8.01856C75.5541 7.34377 76.2754 6.92188 77.0588 6.92188C77.4442 6.92188 77.8196 7.02005 78.1485 7.21441L78.1484 7.2145L78.1548 7.21802C78.658 7.49588 79.0253 7.96069 79.1754 8.52385L79.1754 8.52385L79.176 8.52602C79.3338 9.097 79.2522 9.68294 78.9569 10.1979C78.9569 10.198 78.9568 10.198 78.9568 10.1981L75.9779 15.3587C75.5866 16.0359 74.8807 16.4423 74.0879 16.4423C73.702 16.4423 73.3277 16.3439 73.0088 16.151Z" fill="white" stroke="#EC8562" stroke-width="0.5"/>
</svg>
