<svg width="125" height="125" viewBox="0 0 125 125" fill="none" xmlns="http://www.w3.org/2000/svg">
<path d="M106.902 49.8904C106.922 49.7904 106.902 49.7004 106.902 49.6004C106.902 49.4504 106.882 49.3304 106.842 49.1804C106.822 49.1004 106.802 49.0104 106.783 48.9304C106.763 48.9104 106.763 48.8704 106.763 48.8504C106.683 48.6604 106.573 48.4904 106.424 48.3504L90.4977 30.5704C90.1188 30.1504 89.5603 29.9004 88.9919 29.9004H36.3681C35.7797 29.9004 35.2412 30.1504 34.8623 30.5704L18.9565 48.3304C18.8069 48.5004 18.6872 48.6704 18.5775 48.8804C18.5576 48.9204 18.5576 48.9604 18.5376 49.0104C18.5177 49.0604 18.5177 49.0904 18.4977 49.1404C18.4379 49.3304 18.418 49.5404 18.418 49.7304V49.9004C18.4379 50.1304 18.4778 50.3604 18.5875 50.5904C18.5875 50.6104 18.6074 50.6104 18.6074 50.6304C18.6872 50.8004 18.777 50.9404 18.8966 51.0904L61.1293 98.2804C61.1692 98.3404 61.259 98.3604 61.2989 98.4104C61.3986 98.5104 61.5282 98.6004 61.6579 98.6604C61.7576 98.7204 61.8473 98.7604 61.9471 98.8104C62.1166 98.8704 62.2861 98.9104 62.4656 98.9104C62.5254 98.9104 62.5953 98.9504 62.6551 98.9504C62.695 98.9504 62.7548 98.9304 62.8047 98.9304C63.0141 98.9104 63.2036 98.8704 63.393 98.8004C63.4728 98.7604 63.5626 98.7204 63.6224 98.6704C63.772 98.5904 63.9116 98.4804 64.0412 98.3604C64.0811 98.3204 64.121 98.3204 64.1709 98.2804L106.254 51.2604V51.2404L106.384 51.0904C106.463 51.0104 106.513 50.9004 106.573 50.8004C106.653 50.6704 106.723 50.5304 106.783 50.3804C106.862 50.1904 106.912 50.0704 106.932 49.9204L106.902 49.8904ZM100.36 47.6304H80.0867L73.9437 33.9404H88.0944L100.37 47.6304H100.36ZM49.372 51.7004H75.9182L62.6651 90.5704L49.372 51.7004ZM49.6811 47.6304L55.8241 33.9404H69.4761L75.6191 47.6304H49.6712H49.6811ZM37.2656 33.9204H51.3964L45.2534 47.6104H24.9997L37.2756 33.9204H37.2656ZM45.0839 51.7004L57.5194 88.0704L24.9698 51.7004H45.0839ZM67.8108 88.0504L80.2263 51.6804H100.36L67.8108 88.0504Z" fill="#C23E24"/>
<path d="M62.6654 12.91C61.0698 12.91 59.7734 11.61 59.7734 10.01V2.9C59.7734 1.3 61.0698 0 62.6654 0C64.261 0 65.5574 1.3 65.5574 2.9V10.01C65.5574 11.61 64.261 12.91 62.6654 12.91Z" fill="#C23E24"/>
<path d="M62.6632 11.8598C63.6904 11.8598 64.5081 11.0398 64.5081 10.0098V2.8998C64.5081 1.8698 63.6704 1.0498 62.6632 1.0498C61.656 1.0498 60.8184 1.8698 60.8184 2.8998V10.0098C60.8184 11.0198 61.6361 11.8598 62.6632 11.8598Z" fill="#C23E24"/>
<path d="M36.637 19.8904C35.6099 19.8904 34.6426 19.3404 34.134 18.4504L30.5838 12.2904C29.806 10.9104 30.2847 9.14043 31.6509 8.34043C32.0897 8.08043 32.5883 7.94043 33.0969 7.94043C34.114 7.94043 35.0714 8.49043 35.5899 9.38043L39.1401 15.5404C39.9179 16.9204 39.4392 18.6904 38.083 19.4904C37.6542 19.7504 37.1556 19.8804 36.637 19.8804V19.8904Z" fill="#C23E24"/>
<path d="M35.0298 17.9195C35.3689 18.5095 35.9971 18.8395 36.6353 18.8395C36.9445 18.8395 37.2636 18.7595 37.5528 18.5895C38.4304 18.0695 38.7295 16.9495 38.2409 16.0695L34.7007 9.91952C34.1822 9.03952 33.0653 8.73952 32.1877 9.24952C31.3101 9.76952 31.011 10.8895 31.4996 11.7695L35.0398 17.9195H35.0298Z" fill="#C23E24"/>
<path d="M17.5795 39.0202C17.0609 39.0202 16.5623 38.8802 16.1235 38.6202L10.0005 35.0702C8.61438 34.2602 8.14569 32.5202 8.92353 31.1102V31.0902C9.45206 30.2102 10.4094 29.6602 11.4166 29.6602C11.9352 29.6602 12.4437 29.8002 12.8925 30.0802L19.0055 33.6202C19.6637 33.9902 20.1523 34.6102 20.3618 35.3602C20.5712 36.1202 20.4615 36.9002 20.0726 37.5802C19.554 38.4802 18.6166 39.0102 17.5695 39.0102L17.5795 39.0202Z" fill="#C23E24"/>
<path d="M10.5279 34.1699L16.6608 37.7199C16.95 37.8899 17.2691 37.9699 17.5783 37.9699C18.2265 37.9699 18.8348 37.6499 19.1838 37.0499C19.7024 36.1699 19.3932 35.0199 18.4957 34.5299L12.3628 30.9799C11.4852 30.4399 10.3583 30.7499 9.84974 31.6299C9.35112 32.5299 9.66026 33.6599 10.5378 34.1699H10.5279Z" fill="#C23E24"/>
<path d="M3.52869 65.0998C1.93312 65.0998 0.636719 63.7998 0.636719 62.1998C0.636719 60.5998 1.93312 59.2998 3.52869 59.2998H10.619C12.2146 59.2998 13.511 60.5998 13.511 62.1998C13.511 63.7998 12.2146 65.0998 10.619 65.0998H3.52869Z" fill="#C23E24"/>
<path d="M12.4656 62.1996C12.4656 61.1696 11.6479 60.3496 10.6207 60.3496H3.53042C2.50328 60.3496 1.68555 61.1896 1.68555 62.1996C1.68555 63.2096 2.50328 64.0496 3.53042 64.0496H10.6207C11.6279 64.0496 12.4656 63.2296 12.4656 62.1996Z" fill="#C23E24"/>
<path d="M11.4564 94.7404C10.4292 94.7404 9.46193 94.1904 8.95334 93.3004C8.56442 92.6404 8.45473 91.8604 8.65418 91.1104C8.85362 90.3704 9.32232 89.7404 9.99046 89.3504L16.1334 85.7904C16.5822 85.5304 17.0808 85.4004 17.5894 85.4004C18.6165 85.4004 19.5738 85.9504 20.0924 86.8404C20.8702 88.2304 20.3916 90.0004 19.0353 90.8004L12.8924 94.3604C12.4736 94.6104 11.975 94.7504 11.4564 94.7504V94.7404Z" fill="#C23E24"/>
<path d="M16.6622 86.6997L10.5293 90.2497C9.65171 90.7697 9.35254 91.8897 9.86113 92.7697C10.2002 93.3597 10.8284 93.6897 11.4667 93.6897C11.7758 93.6897 12.0949 93.6097 12.3841 93.4397L18.5171 89.8897C19.3947 89.3697 19.6938 88.2497 19.2052 87.3697C18.6866 86.4897 17.5697 86.1897 16.6722 86.6997H16.6622Z" fill="#C23E24"/>
<path d="M33.1058 116.47C32.5972 116.47 32.0986 116.34 31.6697 116.08C31.0016 115.7 30.513 115.08 30.3135 114.34C30.1041 113.58 30.2138 112.8 30.6027 112.12L34.1429 105.97C34.6415 105.07 35.5988 104.51 36.6359 104.51C37.1445 104.51 37.6432 104.64 38.0819 104.9C38.7501 105.27 39.2387 105.9 39.4382 106.66C39.6376 107.4 39.5379 108.18 39.1589 108.86L35.6088 115.03C35.0902 115.93 34.1528 116.47 33.1058 116.47Z" fill="#C23E24"/>
<path d="M37.5626 105.81C36.6651 105.29 35.5382 105.6 35.0495 106.5L31.5094 112.65C30.9908 113.53 31.3 114.68 32.1975 115.17C32.4867 115.34 32.8058 115.42 33.1149 115.42C33.7631 115.42 34.3714 115.1 34.7205 114.5L38.2606 108.35C38.7592 107.45 38.47 106.31 37.5725 105.81H37.5626Z" fill="#C23E24"/>
<path d="M62.6654 124.4C61.0698 124.4 59.7734 123.1 59.7734 121.5V114.39C59.7734 112.79 61.0698 111.49 62.6654 111.49C64.261 111.49 65.5574 112.79 65.5574 114.39V121.5C65.5574 123.1 64.261 124.4 62.6654 124.4Z" fill="#C23E24"/>
<path d="M62.6632 112.53C61.6361 112.53 60.8184 113.35 60.8184 114.38V121.49C60.8184 122.52 61.6361 123.34 62.6632 123.34C63.6904 123.34 64.5081 122.52 64.5081 121.49V114.38C64.5081 113.37 63.6904 112.53 62.6632 112.53Z" fill="#C23E24"/>
<path d="M92.2425 116.43C91.2153 116.43 90.248 115.88 89.7394 114.99L86.1893 108.83C85.4115 107.45 85.8901 105.68 87.2563 104.88C87.7051 104.63 88.1937 104.5 88.6924 104.5C89.7195 104.5 90.6868 105.05 91.2054 105.94L94.7555 112.08C95.5333 113.46 95.0547 115.23 93.6984 116.03C93.2696 116.28 92.771 116.42 92.2525 116.42L92.2425 116.43Z" fill="#C23E24"/>
<path d="M90.2964 106.48C89.7779 105.6 88.661 105.3 87.7834 105.79C86.9058 106.31 86.6067 107.43 87.0953 108.31L90.6355 114.46C90.9745 115.05 91.6028 115.38 92.241 115.38C92.5502 115.38 92.8693 115.3 93.1585 115.13C94.036 114.61 94.3352 113.49 93.8466 112.61L90.3064 106.48H90.2964Z" fill="#C23E24"/>
<path d="M113.893 94.7401C113.375 94.7401 112.876 94.6001 112.437 94.3401L106.314 90.7901C105.656 90.4201 105.167 89.8001 104.958 89.0501C104.749 88.3001 104.858 87.5201 105.247 86.8401C105.756 85.9301 106.703 85.3701 107.74 85.3701C108.249 85.3701 108.748 85.5001 109.186 85.7601L115.329 89.3201C116.715 90.1301 117.184 91.8701 116.406 93.2801C115.878 94.2001 114.94 94.7401 113.893 94.7401Z" fill="#C23E24"/>
<path d="M114.8 90.23L108.667 86.68C107.769 86.16 106.643 86.47 106.154 87.37C105.635 88.25 105.944 89.4 106.842 89.89L112.975 93.44C113.264 93.61 113.583 93.69 113.892 93.69C114.541 93.69 115.149 93.37 115.498 92.77C115.997 91.87 115.687 90.74 114.81 90.23H114.8Z" fill="#C23E24"/>
<path d="M114.71 65.0998C113.115 65.0998 111.818 63.7998 111.818 62.1998C111.818 60.5998 113.115 59.2998 114.71 59.2998H121.801C123.396 59.2998 124.693 60.5998 124.693 62.1998C124.693 63.7998 123.396 65.0998 121.801 65.0998H114.71Z" fill="#C23E24"/>
<path d="M121.798 60.3496H114.708C113.681 60.3496 112.863 61.1696 112.863 62.1996C112.863 63.2296 113.681 64.0496 114.708 64.0496H121.798C122.826 64.0496 123.643 63.2296 123.643 62.1996C123.643 61.1696 122.826 60.3496 121.798 60.3496Z" fill="#C23E24"/>
<path d="M107.73 39.0004C106.703 39.0004 105.745 38.4404 105.227 37.5404C104.449 36.1604 104.928 34.3904 106.284 33.5904L112.427 30.0304C112.866 29.7804 113.354 29.6504 113.853 29.6504C114.88 29.6504 115.847 30.2004 116.366 31.0904C117.144 32.4804 116.665 34.2504 115.309 35.0504L109.166 38.6104C108.747 38.8604 108.248 39.0004 107.73 39.0004Z" fill="#C23E24"/>
<path d="M107.728 37.9497C108.037 37.9497 108.356 37.8697 108.645 37.6997L114.778 34.1497C115.656 33.6297 115.955 32.5097 115.466 31.6297C114.948 30.7497 113.831 30.4497 112.953 30.9397L106.821 34.4897C105.943 35.0097 105.644 36.1297 106.132 37.0097C106.471 37.5997 107.1 37.9497 107.738 37.9497H107.728Z" fill="#C23E24"/>
<path d="M88.6727 19.8902C88.1641 19.8902 87.6655 19.7602 87.2366 19.5002C86.5785 19.1302 86.0998 18.5102 85.8904 17.7702C85.681 17.0302 85.7807 16.2202 86.1696 15.5602L89.7098 9.4102C90.2084 8.5102 91.1657 7.9502 92.2029 7.9502C92.7114 7.9502 93.2101 8.0802 93.6488 8.3402C94.317 8.7102 94.8056 9.3302 95.0051 10.0802C95.2145 10.8402 95.1048 11.6202 94.7159 12.3002L91.1757 18.4502C90.6572 19.3502 89.7198 19.8902 88.6727 19.8902Z" fill="#C23E24"/>
<path d="M87.7646 18.5903C88.0538 18.7603 88.3729 18.8403 88.682 18.8403C89.3302 18.8403 89.9385 18.5203 90.2876 17.9203L93.8277 11.7703C94.3463 10.8903 94.0371 9.74031 93.1396 9.25031C92.2421 8.73031 91.1153 9.04031 90.6266 9.94031L87.0865 16.0903C86.5878 16.9503 86.877 18.1003 87.7745 18.5903H87.7646Z" fill="#C23E24"/>
</svg>
