<svg width="137" height="124" viewBox="0 0 137 124" fill="none" xmlns="http://www.w3.org/2000/svg">
<path d="M25.6125 119.69H12.5887C8.17095 119.69 4.58092 116.09 4.58092 111.66V99.0002H15.5106V104.11C15.5106 105.22 16.4081 106.11 17.505 106.11H42.6552C43.7621 106.11 44.6496 105.21 44.6496 104.11V99.0002H72.7516C73.8585 99.0002 74.746 98.1002 74.746 97.0002C74.746 95.9002 73.8485 95.0002 72.7516 95.0002H31.6059V85.0102H33.8496C36.602 85.0102 38.8457 82.7602 38.8457 80.0002V76.3402H39.2945C44.0313 76.3402 48.1898 73.1402 49.4164 68.5502L51.7698 59.7302C52.3183 57.7002 54.1632 56.2702 56.2574 56.2702H87.3111C89.4951 56.2702 91.2701 58.0502 91.2701 60.2402V91.0002C91.2701 93.1902 89.4951 94.9702 87.3111 94.9702H80.7493C79.6424 94.9702 78.7549 95.8702 78.7549 96.9702C78.7549 98.0702 79.6524 98.9702 80.7493 98.9702H87.3111C91.6989 98.9702 95.269 95.3902 95.269 90.9902V60.2302C95.269 55.8302 91.6989 52.2502 87.3111 52.2502H56.2574C52.3482 52.2502 48.9178 54.8902 47.9006 58.6802L45.5471 67.5002C44.7892 70.3402 42.2164 72.3202 39.2845 72.3202H19.4097C17.7045 72.3202 16.1288 71.6202 14.982 70.3602C13.8352 69.0902 13.2867 67.4602 13.4563 65.7502L16.3283 35.5702C16.9067 29.4302 21.9826 24.8102 28.1355 24.8102H41.7577C42.8646 24.8102 43.7521 23.9102 43.7521 22.8102C43.7521 21.7102 42.8546 20.8102 41.7577 20.8102H32.0945V15.9102C32.0945 14.8002 31.197 13.9102 30.1 13.9102C29.0031 13.9102 28.1056 14.8102 28.1056 15.9102V20.8102C19.9083 20.8302 13.1372 27.0102 12.3593 35.2002L9.4873 65.3802C9.21804 68.1802 10.1554 70.9802 12.0402 73.0702C13.925 75.1502 16.6175 76.3502 19.4297 76.3502H20.397V80.0102C20.397 82.7702 22.6408 85.0202 25.3931 85.0202H27.6369V95.0102H2.57649C1.46957 95.0102 0.582031 95.9102 0.582031 97.0102V111.68C0.582031 118.32 5.96707 123.72 12.5887 123.72H25.6125C26.7194 123.72 27.607 122.82 27.607 121.72C27.607 120.61 26.7095 119.72 25.6125 119.72V119.69ZM24.3759 80.0002V76.3402H34.8369V80.0002C34.8369 80.5502 34.3881 81.0002 33.8396 81.0002H25.3632C24.8147 81.0002 24.366 80.5502 24.366 80.0002H24.3759ZM40.6607 102.11H19.5095V99.0002H40.6607V102.11Z" fill="#C23E24"/>
<path d="M120.219 20.81H118.115V6.63C118.115 5.52 117.218 4.63 116.121 4.63H112.421V2C112.421 0.89 111.523 0 110.427 0C109.33 0 108.432 0.9 108.432 2V4.63H104.742C103.635 4.63 102.748 5.53 102.748 6.63V20.81H49.765C48.6581 20.81 47.7706 21.71 47.7706 22.81C47.7706 23.91 48.6681 24.81 49.765 24.81H120.239C126.781 24.81 132.096 30.14 132.096 36.7V111.66C132.096 116.09 128.506 119.69 124.089 119.69H33.5999C32.493 119.69 31.6055 120.59 31.6055 121.69C31.6055 122.79 32.503 123.69 33.5999 123.69H124.069C130.69 123.69 136.075 118.29 136.075 111.65V36.71C136.075 27.94 128.965 20.81 120.219 20.81ZM106.727 8.63H114.126V20.81H106.727V8.63Z" fill="#C23E24"/>
<path d="M114.194 51.8506C108.779 51.8506 104.371 56.2706 104.371 61.7006C104.371 67.1306 108.779 71.5506 114.194 71.5506C119.609 71.5506 124.017 67.1306 124.017 61.7006C124.017 56.2706 119.609 51.8506 114.194 51.8506ZM114.194 67.5306C110.983 67.5306 108.37 64.9106 108.37 61.6906C108.37 58.4706 110.983 55.8506 114.194 55.8506C117.405 55.8506 120.018 58.4706 120.018 61.6906C120.018 64.9106 117.405 67.5306 114.194 67.5306Z" fill="#C23E24"/>
<path d="M79.7718 40.1299C80.8788 40.1299 81.7663 39.2299 81.7663 38.1299C81.7663 37.0299 80.8688 36.1299 79.7718 36.1299H73.7386C72.6317 36.1299 71.7441 37.0299 71.7441 38.1299C71.7441 39.2299 72.6416 40.1299 73.7386 40.1299H79.7718Z" fill="#C23E24"/>
<path d="M120.359 36.1299H89.0863C87.9793 36.1299 87.0918 37.0299 87.0918 38.1299C87.0918 39.2299 87.9893 40.1299 89.0863 40.1299H120.359C121.466 40.1299 122.354 39.2299 122.354 38.1299C122.354 37.0299 121.456 36.1299 120.359 36.1299Z" fill="#C23E24"/>
</svg>
