<svg width="110" height="110" viewBox="0 0 110 110" fill="none" xmlns="http://www.w3.org/2000/svg">
<path d="M101.458 10.4665L101.849 10.0749L105.599 6.32484C106.131 5.79319 106.131 4.93121 105.599 4.39981C105.068 3.86811 104.206 3.86815 103.674 4.39978L99.9241 8.14985L99.5325 8.54145L99.4978 7.98874L99.1371 2.2417C99.0228 0.420011 96.8046 -0.415478 95.5159 0.872936L84.716 11.6726C83.976 12.4127 83.5893 13.4364 83.6548 14.4809L84.0261 20.3951L84.063 20.9835L83.6144 20.601C74.6456 12.9538 63.0863 8.56812 50.8406 8.56812C22.8794 8.56812 0.25 31.1947 0.25 59.1585C0.25 71.7787 4.92329 83.8656 13.4096 93.1932C13.9159 93.7492 14.7768 93.7897 15.3326 93.2839C15.8888 92.7778 15.9295 91.9169 15.4236 91.3608C7.39449 82.5358 2.97264 71.0993 2.97264 59.1585C2.97264 32.7638 24.4459 11.2905 50.8406 11.2905C63.2092 11.2905 74.8482 16.031 83.5544 24.1536L83.7436 24.3301L83.5606 24.5131L76.2083 31.8653L76.0389 32.0346L75.8624 31.8727C69.2572 25.8096 60.4638 22.1 50.8406 22.1C30.4068 22.1 13.7823 38.7245 13.7823 59.1582C13.7823 65.0262 15.1948 70.8711 17.8676 76.0634L17.8678 76.0636L17.8836 76.0945C17.8817 76.0909 17.8787 76.0856 17.8748 76.0794C17.8708 76.073 17.8658 76.0659 17.8598 76.0583C17.8538 76.0507 17.8472 76.0433 17.84 76.036L101.458 10.4665ZM101.458 10.4665L102.01 10.5012L107.758 10.8619C109.576 10.9761 110.417 13.1925 109.126 14.4831L98.3266 25.2828L98.5034 25.4595L98.3266 25.2828C97.6408 25.9688 96.711 26.3514 95.7467 26.3514C95.7325 26.3514 95.7213 26.3515 95.7101 26.3515C95.5731 26.3517 95.436 26.3391 89.5865 25.9717L88.9998 25.9348L89.3803 26.383C90.1059 27.2378 90.8079 28.1176 91.4816 29.025L91.6823 28.876L91.4816 29.025C97.9906 37.7899 101.431 48.2093 101.431 59.1585C101.431 87.1224 78.8018 109.749 50.8406 109.749C39.2844 109.749 27.9836 105.751 19.0208 98.4914C18.4367 98.0182 18.3466 97.1609 18.8198 96.5766C19.2935 95.9925 20.1499 95.9027 20.7347 96.3758C29.2146 103.244 39.9062 107.026 50.8406 107.026C77.2352 107.026 98.7083 85.5531 98.7085 59.1578C98.7085 46.6602 93.9348 35.0899 85.847 26.4423L85.6704 26.2535L85.4876 26.4363L78.1348 33.789L77.9654 33.9584L78.1275 34.1349C84.1436 40.6873 87.8438 49.3966 87.8984 58.9426C87.9026 59.6943 87.297 60.3071 86.5455 60.3118C86.5453 60.3118 86.5451 60.3118 86.5449 60.3118L86.5369 60.3118C85.7887 60.3118 85.1799 59.7073 85.1758 58.9583C85.1255 50.163 81.7349 42.1344 76.2176 36.0765L76.0412 35.8829L75.856 36.0681L68.5688 43.3553L68.4035 43.5206L68.5573 43.6966C72.1734 47.8347 74.367 53.2445 74.367 59.158C74.367 72.1301 63.8128 82.684 50.8408 82.684C37.8687 82.684 27.3148 72.1301 27.3148 59.158C27.3148 46.186 37.8687 35.632 50.8408 35.632C56.7543 35.632 62.1641 37.8256 66.3022 41.4415L66.4782 41.5953L66.6435 41.43L73.9303 34.1432L74.1155 33.958L73.9218 33.7816C67.8148 28.2212 59.7079 24.8226 50.8408 24.8226C31.9078 24.8226 16.5051 40.2253 16.5051 59.1582C16.5051 64.6635 17.7745 69.9251 20.2776 74.7958V74.7961L20.3031 74.8453C20.3038 74.8467 20.3045 74.848 20.3052 74.8494L20.3054 74.8501C26.2393 86.3492 37.9405 93.4939 50.841 93.4939C67.0367 93.4939 81.1762 81.9906 84.4633 66.1403C84.6159 65.404 85.3365 64.9311 86.0725 65.0837L86.1233 64.8389L86.0725 65.0837C86.8087 65.2363 87.2818 65.9569 87.1291 66.6931C83.5709 83.8518 68.3458 96.2165 50.8408 96.2165C36.635 96.2165 24.1068 88.1527 17.8859 76.0987C17.8858 76.0985 17.8857 76.0984 17.8857 76.0982L17.8854 76.098L101.458 10.4665ZM56.8561 55.0682L57.0224 55.3361C57.7121 56.4474 58.1118 57.7572 58.1118 59.1587C58.1118 63.1684 54.8501 66.4299 50.8403 66.4299C46.8306 66.4299 43.5691 63.1682 43.5691 59.1587C43.5691 55.1491 46.8306 51.8874 50.8403 51.8874C52.2418 51.8874 53.5516 52.2871 54.6629 52.9766L54.9309 53.1429L54.7079 53.3658L49.8776 58.1961C49.3462 58.7275 49.3461 59.5895 49.8778 60.1212L56.8561 55.0682ZM56.8561 55.0682L56.6332 55.2911L51.8031 60.1212C51.2715 60.6528 50.4097 60.6529 49.8778 60.1212L56.8561 55.0682ZM96.503 3.73649L96.5377 4.2892L96.9585 10.9957L96.9656 11.1084L96.8858 11.1882L87.2003 20.8737L86.8087 21.2653L86.774 20.7126L86.3722 14.3104L86.3722 14.3103L86.6217 14.2946L96.503 3.73649ZM96.503 3.73649L96.1114 4.12808M96.503 3.73649L96.1114 4.12808M96.1114 4.12808L86.6417 13.5976L96.1114 4.12808ZM64.3595 43.7142L64.5506 43.5232L64.3452 43.3475C60.7088 40.237 55.9905 38.3551 50.8406 38.3551C39.3693 38.3551 30.0372 47.6872 30.0372 59.1585C30.0372 70.6297 39.3693 79.9618 50.8406 79.9618C62.312 79.9618 71.6441 70.6297 71.6441 59.1585C71.6441 54.0085 69.762 49.2902 66.6517 45.6538L66.4761 45.4484L66.285 45.6395L58.9524 52.9721L58.8014 53.1231L58.927 53.2959C60.1254 54.9442 60.8347 56.9693 60.8347 59.1585C60.8347 64.6688 56.3511 69.1524 50.8406 69.1524C45.3302 69.1524 40.8467 64.6688 40.8467 59.1585C40.8467 53.6481 45.3302 49.1646 50.8406 49.1646C53.0295 49.1646 55.0546 49.8738 56.7031 51.0723L56.8759 51.1978L57.0269 51.0468L64.3595 43.7142ZM89.1255 22.7988L88.7339 23.1904L89.2867 23.225L95.6871 23.6267C95.6874 23.6267 95.6878 23.6267 95.6881 23.6268C95.9533 23.6449 96.2146 23.5445 96.4015 23.3573L105.871 13.8877L106.263 13.4961L105.71 13.4614L99.0035 13.0405L98.8909 13.0334L98.8111 13.1132L89.1255 22.7988Z" fill="white" stroke="#EC8562" stroke-width="0.5"/>
</svg>
