<svg width="122" height="121" viewBox="0 0 122 121" fill="none" xmlns="http://www.w3.org/2000/svg">
<path d="M77.3063 80.7675C78.2636 80.4875 79.1112 79.9375 79.7495 79.1675V79.1475C80.637 78.1075 81.0658 76.7675 80.9461 75.4175C80.6669 72.3475 79.4104 61.9575 74.9229 57.0075C71.8614 53.6175 67.6232 52.4175 59.1766 50.0275L57.9201 49.6675C54.8486 48.9675 52.0165 47.4775 49.683 45.3575L49.663 45.3375C48.4364 44.1075 46.452 44.1075 45.2154 45.3375C44.7966 45.7575 44.5074 46.2775 44.3777 46.8475C43.201 51.9275 41.0569 64.6775 46.5517 73.4075C51.0392 80.5475 58.2592 82.6075 65.1002 82.6075C69.2387 82.5475 73.3373 81.9275 77.3063 80.7575V80.7675ZM49.9423 71.2575C45.704 64.5175 46.9107 54.4675 47.9678 49.2375C50.5905 51.2675 53.6021 52.7375 56.8132 53.5475L58.0697 53.9075C66.0176 56.1575 69.6475 57.1875 71.9312 59.7175C74.4342 62.4875 75.97 68.4275 76.6581 73.4875C66.4963 64.3775 59.8049 62.5975 59.4957 62.5175C58.4187 62.2475 57.3218 62.8975 57.0525 63.9775C56.7833 65.0575 57.4315 66.1575 58.5085 66.4275C58.5783 66.4475 65.0104 68.2275 74.8331 77.2575C67.4536 79.1275 55.6464 80.3375 49.9423 71.2575Z" fill="#C23E24"/>
<path d="M91.0584 70.0783L105.708 92.6283H87.1492V89.7383C87.1791 87.6683 85.9525 85.7983 84.0678 84.9783C82.2229 84.1583 80.0788 84.5283 78.6129 85.9183L64.6916 98.8883C62.5874 100.868 62.4877 104.188 64.4622 106.288C64.532 106.368 64.6118 106.448 64.6916 106.518L78.6129 119.488C79.5403 120.368 80.757 120.858 82.0334 120.858C84.8755 120.838 87.1692 118.518 87.1492 115.668V112.708L97.1415 112.358C111.003 111.838 121.813 100.148 121.294 86.2583C121.125 81.6883 119.719 77.2483 117.216 73.4283L107.902 59.0683C106.097 56.2683 102.367 55.4583 99.5747 57.2683C99.5747 57.2683 99.5548 57.2683 99.5548 57.2783L92.8234 61.6983C90.0511 63.5383 89.2733 67.2683 91.0783 70.0783H91.0584ZM107.403 102.628C106.495 104.828 104.71 106.548 102.487 107.378C102.467 107.378 102.457 107.398 102.447 107.408C100.692 108.018 98.8567 108.328 97.0018 108.348L85.075 108.768C83.998 108.808 83.1403 109.698 83.1403 110.778V115.678C83.1603 116.138 82.891 116.568 82.4722 116.748C82.0933 116.928 81.6445 116.848 81.3553 116.548L67.434 103.578C66.9553 103.118 66.9453 102.368 67.4041 101.888C67.414 101.878 67.424 101.868 67.434 101.858L81.3553 88.8883C81.6445 88.5883 82.0933 88.5083 82.4722 88.6883C82.901 88.8683 83.1603 89.2983 83.1403 89.7583V94.6583C83.1403 95.7683 84.0379 96.6683 85.1448 96.6683H107.782C108.33 98.6383 108.201 100.748 107.413 102.638L107.403 102.628ZM95.0074 65.0783L101.729 60.6583C102.048 60.4483 102.427 60.3383 102.816 60.3383C102.955 60.3383 103.105 60.3583 103.245 60.3883C103.773 60.4983 104.222 60.8183 104.511 61.2683L113.835 75.6383C115.989 78.9283 117.176 82.7583 117.276 86.6883C117.355 90.6283 116.358 94.5083 114.394 97.9183C113.695 99.1183 112.888 100.248 111.97 101.278C112.399 98.7683 112.09 96.1983 111.093 93.8583C110.804 93.1783 110.454 92.5283 110.046 91.9183L94.4489 67.8983C93.8307 66.9583 94.0899 65.6983 95.0273 65.0783H95.0074Z" fill="#C23E24"/>
<path d="M32.6711 36.638L39.7514 40.418C40.619 40.888 41.5863 41.128 42.5636 41.128C44.7974 41.128 46.8517 39.888 47.9187 37.918L60.5237 14.228L69.4689 30.528L66.9558 31.918C65.1409 32.888 64.0838 34.858 64.2833 36.918C64.4528 38.928 65.819 40.648 67.7337 41.258L85.7536 47.248C86.2722 47.418 86.8206 47.508 87.3691 47.508C89.7525 47.508 91.8267 45.888 92.4151 43.568L97.0223 25.098C97.5309 23.148 96.8229 21.068 95.2173 19.848C93.5919 18.578 91.368 18.408 89.573 19.428L87.0002 20.848L81.8744 12.238C80.7076 10.298 79.2816 8.51802 77.6461 6.95802C73.1785 2.64802 67.245 0.168024 61.0323 0.00802364C51.5287 -0.231976 42.6932 4.92802 38.2256 13.348L30.2079 28.438C29.44 29.838 29.2705 31.488 29.7292 33.018C30.188 34.578 31.245 35.878 32.6711 36.638ZM74.9038 9.91802C76.25 11.238 77.4268 12.718 78.424 14.318L84.547 24.588C85.1054 25.518 86.2921 25.838 87.2395 25.318L91.5176 22.958C91.9065 22.718 92.4051 22.748 92.7741 23.038C93.1032 23.288 93.2528 23.718 93.1331 24.118L88.5159 42.598C88.3464 43.228 87.6882 43.608 87.06 43.438C87.05 43.438 87.0301 43.438 87.0201 43.428L68.9902 37.438C68.5913 37.318 68.3021 36.968 68.2722 36.558C68.2223 36.098 68.4716 35.668 68.8705 35.458L73.1486 33.098C74.1259 32.568 74.4849 31.348 73.9564 30.368L63.0467 10.468C64.5027 9.03802 66.4074 8.13802 68.4417 7.91802C70.7852 7.66802 73.1187 8.39802 74.9137 9.92802L74.9038 9.91802ZM33.7381 30.358L41.7758 15.248C43.6107 11.778 46.383 8.88802 49.7736 6.91802C53.0445 5.01802 56.7542 4.02802 60.5337 4.04802H60.9326C62.3187 4.08802 63.6849 4.25802 65.0411 4.56802C62.6378 5.40802 60.5237 6.92802 58.968 8.94802C58.5292 9.51802 58.1403 10.138 57.8212 10.778L44.3985 36.028C43.8799 37.018 42.6533 37.398 41.6661 36.878L34.5758 33.098C34.0971 32.848 33.7481 32.408 33.5885 31.888C33.429 31.378 33.4888 30.828 33.7481 30.368L33.7381 30.358Z" fill="#C23E24"/>
<path d="M12.7358 109.068C16.6748 111.498 21.2022 112.788 25.8194 112.788H42.9518C46.2826 112.788 48.9751 110.078 48.9751 106.748L48.9552 98.6881C48.9552 95.3481 46.2527 92.6481 42.9319 92.6481L16.1662 92.6681L26.2582 77.0181L28.6715 78.5781C30.3967 79.7181 32.6205 79.7181 34.3457 78.5781C36.031 77.4781 36.8787 75.4681 36.5097 73.4881L33.2588 54.6981C32.7701 51.8581 30.0676 49.9581 27.2355 50.4481C27.1158 50.4681 27.0061 50.4981 26.8865 50.5181L8.47759 55.1781C6.51304 55.6581 5.03714 57.2681 4.71803 59.2681C4.369 61.3081 5.28645 63.3481 7.02163 64.4481L9.47482 66.0581L4.32911 74.6681C3.32191 76.3781 2.51415 78.2081 1.93576 80.1081C-0.0387577 86.3281 0.509719 93.0881 3.46152 98.9081C5.56567 103.088 8.76678 106.598 12.7358 109.068ZM42.9319 96.6581C44.0388 96.6581 44.9363 97.5581 44.9363 98.6681C44.9363 98.6681 44.9363 98.6681 44.9363 98.6781L44.9563 106.748C44.9563 107.858 44.0588 108.758 42.9518 108.758H25.8294C21.9502 108.758 18.1407 107.678 14.8299 105.638C10.2826 102.808 6.9618 98.3781 5.52579 93.2181C7.39061 94.9481 9.72412 96.0881 12.2272 96.4981C12.9452 96.6281 13.6732 96.6981 14.4011 96.6981L42.9319 96.6581ZM5.77509 81.3081C6.26374 79.7181 6.94185 78.1881 7.77953 76.7581L13.9225 66.4681C14.4809 65.5381 14.2017 64.3381 13.2942 63.7481L9.21554 61.0781C8.81664 60.8481 8.60723 60.3881 8.687 59.9281C8.74684 59.5081 9.05598 59.1781 9.46484 59.0981L27.8737 54.4381C28.1928 54.3681 28.5219 54.4281 28.7912 54.6081C29.0604 54.7781 29.2499 55.0581 29.2997 55.3681L32.5507 74.1781C32.6405 74.5781 32.4709 74.9881 32.1219 75.2081C31.743 75.4681 31.2443 75.4581 30.8654 75.1981L26.7668 72.5281C26.318 72.2381 25.7795 72.1381 25.261 72.2481C24.7424 72.3581 24.2837 72.6781 23.9945 73.1281L11.6986 92.1981C9.63437 91.5581 7.86928 90.1981 6.72246 88.3681C5.39615 86.2681 5.04712 83.6881 5.78507 81.3081H5.77509Z" fill="#C23E24"/>
</svg>
