<svg width="98" height="108" viewBox="0 0 98 108" fill="none" xmlns="http://www.w3.org/2000/svg">
<path d="M71.2134 70.8758L71.3728 71.171L71.6101 70.9337L84.661 57.8829L84.4842 57.7061L84.661 57.8828C85.3457 57.198 86.1586 56.6547 87.0533 56.2841C87.948 55.9134 88.9069 55.7227 89.8753 55.7227C90.8438 55.7227 91.8027 55.9134 92.6974 56.2841C93.5921 56.6547 94.405 57.198 95.0897 57.8828L95.2665 57.7061L95.0897 57.8829C95.7746 58.5676 96.3178 59.3805 96.6885 60.2752C97.0591 61.1699 97.2499 62.1288 97.2499 63.0972C97.2499 64.0656 97.0591 65.0246 96.6885 65.9193C96.3178 66.8139 95.7746 67.6268 95.0897 68.3115L95.2665 68.4883L95.0897 68.3116L76.0468 87.3545L76.0463 87.355C74.5123 88.8977 72.6876 90.1207 70.6777 90.9533C68.6678 91.7859 66.5127 92.2114 64.3372 92.2054H64.3365H39.7678H39.767C38.3647 92.2096 37.0206 92.7662 36.0259 93.7547L36.0254 93.7552L34.14 95.6406L33.9632 95.8174L34.14 95.9942L36.3134 98.1678L36.3135 98.1678C36.4464 98.3006 36.5518 98.4584 36.6238 98.632C36.6957 98.8056 36.7327 98.9916 36.7327 99.1795C36.7327 99.3674 36.6957 99.5535 36.6238 99.7271C36.5518 99.9007 36.4464 100.058 36.3135 100.191L36.3134 100.191L29.5893 106.915L29.5893 106.915C29.4564 107.048 29.2987 107.154 29.1251 107.226C28.9515 107.298 28.7655 107.335 28.5775 107.335C28.3896 107.335 28.2036 107.298 28.03 107.226C27.8564 107.154 27.6987 107.048 27.5658 106.915L27.5658 106.915L0.669275 80.0189L0.669227 80.0189C0.536321 79.886 0.430889 79.7283 0.358956 79.5547C0.287024 79.3811 0.25 79.1951 0.25 79.0072C0.25 78.8192 0.287024 78.6332 0.358956 78.4596C0.430889 78.286 0.536321 78.1283 0.669227 77.9954L0.669275 77.9954L7.3934 71.2713L7.39345 71.2712C7.52629 71.1383 7.68401 71.0329 7.8576 70.9609C8.03119 70.889 8.21725 70.852 8.40516 70.852C8.59307 70.852 8.77914 70.889 8.95273 70.9609C9.12632 71.0329 9.28405 71.1383 9.41688 71.2712L9.41693 71.2713L11.5905 73.4447L11.7673 73.6215L11.9441 73.4447L19.2715 66.1172C21.0713 64.3174 23.2274 62.9134 25.6015 61.9954C27.9755 61.0774 30.5152 60.6655 33.0577 60.7862C35.6002 60.9069 38.0895 61.5575 40.3659 62.6963C42.6423 63.835 44.6557 65.4369 46.277 67.3991L46.352 67.4899H46.4697H65.5599C66.7195 67.4941 67.8565 67.8108 68.8513 68.4065C69.8462 69.0024 70.6622 69.8554 71.2134 70.8758ZM28.4008 103.703L28.5776 103.88L28.7544 103.703L33.1014 99.3563L33.2782 99.1795L33.1014 99.0027L8.58199 74.4833L8.40522 74.3065L8.22844 74.4833L3.88139 78.8303L3.70462 79.0071L3.88139 79.1839L28.4008 103.703ZM39.7671 89.3433H39.7678H64.3358C66.1357 89.3482 67.9188 88.9961 69.5817 88.3073C71.2446 87.6185 72.7544 86.6067 74.0237 85.3305L93.0661 66.288C93.4852 65.869 93.8176 65.3715 94.0444 64.824C94.2712 64.2765 94.3879 63.6897 94.3879 63.0971C94.3879 62.5045 94.2712 61.9178 94.0444 61.3703C93.8176 60.8228 93.4852 60.3253 93.0662 59.9063L93.0662 59.9063L93.0621 59.9023C92.2036 59.0826 91.0623 58.6253 89.8754 58.6253C88.6885 58.6253 87.5472 59.0826 86.6887 59.9023L86.6887 59.9022L86.6846 59.9063L72.0294 74.5616L71.9676 74.6233L71.9577 74.71C71.7784 76.2829 71.0277 77.7352 69.8482 78.7911C68.6689 79.8469 67.143 80.433 65.5601 80.4381C65.5599 80.4381 65.5597 80.4381 65.5595 80.4381L42.0259 80.4381C41.6463 80.4381 41.2823 80.2874 41.014 80.019C40.7456 79.7506 40.5948 79.3866 40.5948 79.0071C40.5948 78.6276 40.7456 78.2636 41.014 77.9952C41.2823 77.7268 41.6463 77.5761 42.0259 77.5761H65.5603C66.5183 77.5761 67.437 77.1955 68.1144 76.5181C68.7918 75.8407 69.1724 74.922 69.1724 73.964C69.1724 73.006 68.7918 72.0873 68.1144 71.4099C67.437 70.7325 66.5183 70.3519 65.5603 70.3519H45.6604C45.4443 70.352 45.231 70.303 45.0366 70.2088C44.8421 70.1145 44.6716 69.9774 44.5377 69.8077L44.5377 69.8076L44.2791 69.4801L44.279 69.48C42.9302 67.7742 41.2357 66.3732 39.3068 65.369C37.378 64.3649 35.2584 63.7804 33.0875 63.6539C30.9166 63.5274 28.7435 63.8618 26.711 64.6352C24.6786 65.4085 22.8328 66.6032 21.2951 68.1408L21.4719 68.3176L21.2951 68.1408L13.9676 75.4683L13.7908 75.645L13.9676 75.8218L31.7629 93.6171L31.9397 93.7939L32.1164 93.6171L34.0019 91.7317L34.0023 91.7312C34.7576 90.9718 35.656 90.3697 36.6455 89.9598C37.635 89.5499 38.696 89.3404 39.7671 89.3433Z" fill="white" stroke="#EC8562" stroke-width="0.5"/>
<mask id="path-2-inside-1_15_1755" fill="white">
<path d="M28.1467 34.2545C28.1232 34.2873 28.0879 34.306 28.0665 34.341C28.0609 34.3501 28.0613 34.3607 28.056 34.3699C22.9433 40.8634 20.1661 48.8892 20.1719 57.1539C20.1719 57.4289 20.1736 57.7022 20.1924 57.9764C20.222 58.4007 20.4113 58.798 20.7221 59.0883C21.033 59.3786 21.4423 59.5403 21.8677 59.5408C21.9071 59.5408 21.9465 59.5392 21.9859 59.5367C22.2061 59.5215 22.4212 59.463 22.6188 59.3646C22.8164 59.2661 22.9927 59.1298 23.1376 58.9632C23.2825 58.7967 23.3932 58.6032 23.4633 58.3939C23.5334 58.1846 23.5616 57.9635 23.5463 57.7433C23.5323 57.5463 23.5339 57.3501 23.5339 57.1539C23.5354 50.0882 25.7778 43.205 29.9386 37.4943C34.6926 40.5984 37.4752 43.5974 37.5896 45.8316C37.4138 47.9567 36.7425 50.0112 35.6295 51.8301C35.1346 52.852 34.615 53.9273 34.1356 55.0789C34.0508 55.2827 34.007 55.5013 34.0066 55.722C34.0062 55.9428 34.0493 56.1615 34.1335 56.3656C34.3034 56.7779 34.6302 57.1057 35.0418 57.277C35.2457 57.3619 35.4642 57.4057 35.685 57.4061C35.9058 57.4065 36.1245 57.3633 36.3286 57.2792C36.7408 57.1092 37.0686 56.7825 37.24 56.3708C37.6938 55.2808 38.1872 54.263 38.6559 53.2952C40.0515 50.9818 40.8396 48.3531 40.9468 45.6534C40.773 42.2628 37.7615 38.6373 32.0536 34.8646C34.6275 31.9511 37.6845 29.5033 41.0902 27.6289C44.3643 34.009 48.304 37.3764 52.6057 37.3764C52.9186 37.3764 53.2312 37.3588 53.5422 37.3238C56.5225 37.134 59.367 36.0089 61.6707 34.1086C63.1506 32.9644 63.7638 32.4916 67.157 33.6769C70.3263 34.7803 73.6671 33.397 76.6939 29.8072C79.3137 31.6841 81.6503 33.9276 83.6321 36.469C81.6086 38.63 80.0163 41.1575 78.9407 43.9158C77.5068 47.0464 76.5374 48.9745 74.7546 49.1419C73.5965 49.2139 72.435 49.209 71.2776 49.1271C66.8419 48.9088 61.3252 48.6503 57.3845 56.3971C56.4909 58.1427 55.8905 60.0234 55.6074 61.9639C55.5456 62.4054 55.6617 62.8533 55.9301 63.2092C56.1986 63.5651 56.5974 63.7998 57.0389 63.8616C57.1169 63.8728 57.1956 63.8783 57.2744 63.878C57.6795 63.8775 58.0707 63.7307 58.3761 63.4647C58.6815 63.1986 58.8805 62.8312 58.9366 62.4301C59.1652 60.8557 59.6542 59.3303 60.3837 57.9164C63.3353 52.1133 66.7729 52.2832 71.1175 52.4851C72.4313 52.5771 73.7499 52.5787 75.064 52.49C78.8767 52.1305 80.4633 48.6658 81.9974 45.3153C82.8663 43.1171 84.0832 41.073 85.6015 39.2614C87.8498 42.8192 89.4039 46.7706 90.1818 50.9067C90.2222 51.1238 90.3049 51.3309 90.4253 51.516C90.5458 51.7012 90.7015 51.8608 90.8836 51.9857C91.0658 52.1106 91.2707 52.1984 91.4868 52.2441C91.7029 52.2898 91.9259 52.2924 92.143 52.2518C92.3601 52.2113 92.5671 52.1283 92.7521 52.0077C92.9372 51.8872 93.0966 51.7313 93.2214 51.549C93.3462 51.3668 93.4338 51.1617 93.4793 50.9456C93.5247 50.7295 93.5272 50.5065 93.4864 50.2894C91.9387 42.1108 87.675 34.6942 81.386 29.2414C75.0969 23.7886 67.151 20.6188 58.8356 20.2458V18.3884C58.8358 17.4469 59.1006 16.5245 59.5999 15.7263C60.0992 14.9282 60.8128 14.2864 61.6593 13.8744C62.5946 14.9642 63.7543 15.839 65.0591 16.4388C66.3638 17.0387 67.7828 17.3496 69.2189 17.3501C70.5807 17.3384 71.9307 17.0958 73.2114 16.6327C75.3555 15.8821 77.3891 14.8469 79.2575 13.5547C80.0664 12.8287 81.0615 12.3423 82.1313 12.1501C83.201 11.9578 84.3032 12.0673 85.3143 12.4663C85.6548 12.5536 86.0141 12.532 86.3417 12.4045C86.6693 12.277 86.9487 12.0501 87.1405 11.7555C87.3324 11.461 87.4272 11.1137 87.4114 10.7625C87.3957 10.4114 87.2702 10.074 87.0528 9.79779C86.6925 9.33971 78.133 -1.38261 69.8937 0.151497C61.9406 1.6339 61.0089 6.45772 60.6212 10.641C59.2421 11.2253 58.0449 12.1689 57.1547 13.3734C56.2644 12.1687 55.0672 11.2249 53.6879 10.6405C53.3 6.45735 52.3684 1.6338 44.4155 0.151497C36.1753 -1.39082 27.6167 9.34054 27.2564 9.79773C27.0389 10.0739 26.9134 10.4113 26.8977 10.7625C26.882 11.1137 26.9767 11.4609 27.1686 11.7555C27.3605 12.05 27.6398 12.277 27.9674 12.4045C28.295 12.5319 28.6543 12.5535 28.9948 12.4662C30.0059 12.067 31.1081 11.9574 32.1779 12.1496C33.2477 12.3419 34.2428 12.8284 35.0516 13.5546C36.92 14.8468 38.9536 15.8821 41.0978 16.6326C42.3783 17.0963 43.7284 17.3388 45.0902 17.35C46.5263 17.3495 47.9453 17.0386 49.2501 16.4387C50.5549 15.8387 51.7146 14.964 52.6499 13.8742C53.4964 14.2863 54.2101 14.928 54.7093 15.7262C55.2086 16.5244 55.4734 17.4469 55.4735 18.3884V20.2139C50.1768 20.4514 44.9937 21.8287 40.2777 24.2517C35.5618 26.6748 31.424 30.0866 28.1467 34.2545ZM70.5093 3.4561C74.1922 2.76416 78.5951 5.96287 81.5927 8.8267C80.0732 9.14249 78.6447 9.79769 77.414 10.7433C75.773 11.8847 73.9848 12.7984 72.0984 13.4594C70.935 13.967 69.6536 14.142 68.3967 13.9651C67.1398 13.7881 65.9566 13.2661 64.9786 12.4571L69.4217 10.5923C69.6258 10.5073 69.8112 10.3828 69.9672 10.226C70.1231 10.0692 70.2466 9.88315 70.3305 9.67854C70.4145 9.47393 70.4572 9.25477 70.4563 9.03361C70.4553 8.81246 70.4108 8.59367 70.3252 8.38976C70.2395 8.18586 70.1145 8.00087 69.9572 7.84538C69.8 7.68988 69.6136 7.56696 69.4087 7.48364C69.2038 7.40032 68.9845 7.35824 68.7634 7.35983C68.5423 7.36141 68.3236 7.40662 68.1199 7.49286L64.183 9.14547C64.6502 6.26996 65.8307 4.32862 70.5093 3.4561ZM42.2108 13.4594C40.3243 12.7984 38.5362 11.8847 36.8952 10.7433C35.6634 9.79625 34.233 9.1407 32.7115 8.82592C35.7042 5.96128 40.0939 2.76748 43.7999 3.45614C48.4785 4.32846 49.6588 6.27018 50.126 9.14522L46.1893 7.49286C45.9858 7.40739 45.7674 7.36283 45.5467 7.36174C45.326 7.36065 45.1072 7.40304 44.9028 7.4865C44.6985 7.56996 44.5126 7.69286 44.3557 7.84816C44.1989 8.00347 44.0742 8.18815 43.9887 8.39166C43.9032 8.59517 43.8587 8.81352 43.8576 9.03425C43.8565 9.25498 43.8989 9.47377 43.9823 9.67811C44.0658 9.88246 44.1887 10.0684 44.344 10.2252C44.4993 10.3821 44.684 10.5068 44.8875 10.5923L49.3313 12.4572C48.3528 13.2657 47.1695 13.7874 45.9126 13.9643C44.6557 14.1412 43.3744 13.9664 42.2108 13.4594ZM68.2651 30.502C63.5076 28.8423 61.7503 29.7986 59.6145 31.4484C57.7965 32.9669 55.5356 33.8558 53.1703 33.9823C49.1875 34.4388 45.9818 29.8202 44.0964 26.1737C48.8601 24.1655 54.0229 23.2828 59.1833 23.5944C64.3437 23.906 69.3627 25.4035 73.8502 27.9704C72.3934 29.6106 70.3386 31.2264 68.2651 30.502Z"/>
</mask>
<path d="M28.1467 34.2545C28.1232 34.2873 28.0879 34.306 28.0665 34.341C28.0609 34.3501 28.0613 34.3607 28.056 34.3699C22.9433 40.8634 20.1661 48.8892 20.1719 57.1539C20.1719 57.4289 20.1736 57.7022 20.1924 57.9764C20.222 58.4007 20.4113 58.798 20.7221 59.0883C21.033 59.3786 21.4423 59.5403 21.8677 59.5408C21.9071 59.5408 21.9465 59.5392 21.9859 59.5367C22.2061 59.5215 22.4212 59.463 22.6188 59.3646C22.8164 59.2661 22.9927 59.1298 23.1376 58.9632C23.2825 58.7967 23.3932 58.6032 23.4633 58.3939C23.5334 58.1846 23.5616 57.9635 23.5463 57.7433C23.5323 57.5463 23.5339 57.3501 23.5339 57.1539C23.5354 50.0882 25.7778 43.205 29.9386 37.4943C34.6926 40.5984 37.4752 43.5974 37.5896 45.8316C37.4138 47.9567 36.7425 50.0112 35.6295 51.8301C35.1346 52.852 34.615 53.9273 34.1356 55.0789C34.0508 55.2827 34.007 55.5013 34.0066 55.722C34.0062 55.9428 34.0493 56.1615 34.1335 56.3656C34.3034 56.7779 34.6302 57.1057 35.0418 57.277C35.2457 57.3619 35.4642 57.4057 35.685 57.4061C35.9058 57.4065 36.1245 57.3633 36.3286 57.2792C36.7408 57.1092 37.0686 56.7825 37.24 56.3708C37.6938 55.2808 38.1872 54.263 38.6559 53.2952C40.0515 50.9818 40.8396 48.3531 40.9468 45.6534C40.773 42.2628 37.7615 38.6373 32.0536 34.8646C34.6275 31.9511 37.6845 29.5033 41.0902 27.6289C44.3643 34.009 48.304 37.3764 52.6057 37.3764C52.9186 37.3764 53.2312 37.3588 53.5422 37.3238C56.5225 37.134 59.367 36.0089 61.6707 34.1086C63.1506 32.9644 63.7638 32.4916 67.157 33.6769C70.3263 34.7803 73.6671 33.397 76.6939 29.8072C79.3137 31.6841 81.6503 33.9276 83.6321 36.469C81.6086 38.63 80.0163 41.1575 78.9407 43.9158C77.5068 47.0464 76.5374 48.9745 74.7546 49.1419C73.5965 49.2139 72.435 49.209 71.2776 49.1271C66.8419 48.9088 61.3252 48.6503 57.3845 56.3971C56.4909 58.1427 55.8905 60.0234 55.6074 61.9639C55.5456 62.4054 55.6617 62.8533 55.9301 63.2092C56.1986 63.5651 56.5974 63.7998 57.0389 63.8616C57.1169 63.8728 57.1956 63.8783 57.2744 63.878C57.6795 63.8775 58.0707 63.7307 58.3761 63.4647C58.6815 63.1986 58.8805 62.8312 58.9366 62.4301C59.1652 60.8557 59.6542 59.3303 60.3837 57.9164C63.3353 52.1133 66.7729 52.2832 71.1175 52.4851C72.4313 52.5771 73.7499 52.5787 75.064 52.49C78.8767 52.1305 80.4633 48.6658 81.9974 45.3153C82.8663 43.1171 84.0832 41.073 85.6015 39.2614C87.8498 42.8192 89.4039 46.7706 90.1818 50.9067C90.2222 51.1238 90.3049 51.3309 90.4253 51.516C90.5458 51.7012 90.7015 51.8608 90.8836 51.9857C91.0658 52.1106 91.2707 52.1984 91.4868 52.2441C91.7029 52.2898 91.9259 52.2924 92.143 52.2518C92.3601 52.2113 92.5671 52.1283 92.7521 52.0077C92.9372 51.8872 93.0966 51.7313 93.2214 51.549C93.3462 51.3668 93.4338 51.1617 93.4793 50.9456C93.5247 50.7295 93.5272 50.5065 93.4864 50.2894C91.9387 42.1108 87.675 34.6942 81.386 29.2414C75.0969 23.7886 67.151 20.6188 58.8356 20.2458V18.3884C58.8358 17.4469 59.1006 16.5245 59.5999 15.7263C60.0992 14.9282 60.8128 14.2864 61.6593 13.8744C62.5946 14.9642 63.7543 15.839 65.0591 16.4388C66.3638 17.0387 67.7828 17.3496 69.2189 17.3501C70.5807 17.3384 71.9307 17.0958 73.2114 16.6327C75.3555 15.8821 77.3891 14.8469 79.2575 13.5547C80.0664 12.8287 81.0615 12.3423 82.1313 12.1501C83.201 11.9578 84.3032 12.0673 85.3143 12.4663C85.6548 12.5536 86.0141 12.532 86.3417 12.4045C86.6693 12.277 86.9487 12.0501 87.1405 11.7555C87.3324 11.461 87.4272 11.1137 87.4114 10.7625C87.3957 10.4114 87.2702 10.074 87.0528 9.79779C86.6925 9.33971 78.133 -1.38261 69.8937 0.151497C61.9406 1.6339 61.0089 6.45772 60.6212 10.641C59.2421 11.2253 58.0449 12.1689 57.1547 13.3734C56.2644 12.1687 55.0672 11.2249 53.6879 10.6405C53.3 6.45735 52.3684 1.6338 44.4155 0.151497C36.1753 -1.39082 27.6167 9.34054 27.2564 9.79773C27.0389 10.0739 26.9134 10.4113 26.8977 10.7625C26.882 11.1137 26.9767 11.4609 27.1686 11.7555C27.3605 12.05 27.6398 12.277 27.9674 12.4045C28.295 12.5319 28.6543 12.5535 28.9948 12.4662C30.0059 12.067 31.1081 11.9574 32.1779 12.1496C33.2477 12.3419 34.2428 12.8284 35.0516 13.5546C36.92 14.8468 38.9536 15.8821 41.0978 16.6326C42.3783 17.0963 43.7284 17.3388 45.0902 17.35C46.5263 17.3495 47.9453 17.0386 49.2501 16.4387C50.5549 15.8387 51.7146 14.964 52.6499 13.8742C53.4964 14.2863 54.2101 14.928 54.7093 15.7262C55.2086 16.5244 55.4734 17.4469 55.4735 18.3884V20.2139C50.1768 20.4514 44.9937 21.8287 40.2777 24.2517C35.5618 26.6748 31.424 30.0866 28.1467 34.2545ZM70.5093 3.4561C74.1922 2.76416 78.5951 5.96287 81.5927 8.8267C80.0732 9.14249 78.6447 9.79769 77.414 10.7433C75.773 11.8847 73.9848 12.7984 72.0984 13.4594C70.935 13.967 69.6536 14.142 68.3967 13.9651C67.1398 13.7881 65.9566 13.2661 64.9786 12.4571L69.4217 10.5923C69.6258 10.5073 69.8112 10.3828 69.9672 10.226C70.1231 10.0692 70.2466 9.88315 70.3305 9.67854C70.4145 9.47393 70.4572 9.25477 70.4563 9.03361C70.4553 8.81246 70.4108 8.59367 70.3252 8.38976C70.2395 8.18586 70.1145 8.00087 69.9572 7.84538C69.8 7.68988 69.6136 7.56696 69.4087 7.48364C69.2038 7.40032 68.9845 7.35824 68.7634 7.35983C68.5423 7.36141 68.3236 7.40662 68.1199 7.49286L64.183 9.14547C64.6502 6.26996 65.8307 4.32862 70.5093 3.4561ZM42.2108 13.4594C40.3243 12.7984 38.5362 11.8847 36.8952 10.7433C35.6634 9.79625 34.233 9.1407 32.7115 8.82592C35.7042 5.96128 40.0939 2.76748 43.7999 3.45614C48.4785 4.32846 49.6588 6.27018 50.126 9.14522L46.1893 7.49286C45.9858 7.40739 45.7674 7.36283 45.5467 7.36174C45.326 7.36065 45.1072 7.40304 44.9028 7.4865C44.6985 7.56996 44.5126 7.69286 44.3557 7.84816C44.1989 8.00347 44.0742 8.18815 43.9887 8.39166C43.9032 8.59517 43.8587 8.81352 43.8576 9.03425C43.8565 9.25498 43.8989 9.47377 43.9823 9.67811C44.0658 9.88246 44.1887 10.0684 44.344 10.2252C44.4993 10.3821 44.684 10.5068 44.8875 10.5923L49.3313 12.4572C48.3528 13.2657 47.1695 13.7874 45.9126 13.9643C44.6557 14.1412 43.3744 13.9664 42.2108 13.4594ZM68.2651 30.502C63.5076 28.8423 61.7503 29.7986 59.6145 31.4484C57.7965 32.9669 55.5356 33.8558 53.1703 33.9823C49.1875 34.4388 45.9818 29.8202 44.0964 26.1737C48.8601 24.1655 54.0229 23.2828 59.1833 23.5944C64.3437 23.906 69.3627 25.4035 73.8502 27.9704C72.3934 29.6106 70.3386 31.2264 68.2651 30.502Z" fill="white" stroke="#EC8562" mask="url(#path-2-inside-1_15_1755)"/>
</svg>
